<svg width="72" height="72" viewBox="0 0 72 72" fill="none" xmlns="http://www.w3.org/2000/svg">
<rect width="72" height="72" fill="white"/>
<path d="M24.4861 29.4596C24.4861 29.6893 24.5666 29.8846 24.7275 30.0512C24.8885 30.2177 25.0954 30.3039 25.3425 30.3039H27.2966C27.5437 30.3039 27.7506 30.2177 27.9116 30.0512C28.0725 29.8789 28.153 29.6893 28.153 29.4596C28.153 29.2298 28.0725 29.0345 27.9116 28.868C27.7506 28.7014 27.5437 28.6152 27.2966 28.6152H25.3425C25.0954 28.6152 24.8885 28.7014 24.7275 28.868C24.5666 29.0403 24.4861 29.2298 24.4861 29.4596Z" fill="#1E1E1E"/>
<path d="M25.3828 32.2049C25.2219 32.0384 25.1414 31.8431 25.1414 31.6133C25.1414 31.3836 25.2219 31.1941 25.3828 31.0217C25.5437 30.8552 25.7506 30.769 25.9977 30.769H27.3196C27.5668 30.769 27.7737 30.8552 27.9346 31.0217C28.0955 31.1883 28.176 31.3836 28.176 31.6133C28.176 31.8431 28.0955 32.0326 27.9346 32.2049C27.7737 32.3715 27.5668 32.4577 27.3196 32.4577H25.9977C25.7506 32.4577 25.5437 32.3715 25.3828 32.2049Z" fill="#1E1E1E"/>
<path d="M40.958 34.3532C40.7971 34.1867 40.7167 33.9914 40.7167 33.7616C40.7167 33.5319 40.7971 33.3423 40.958 33.17C41.119 33.0035 41.3259 32.9173 41.573 32.9173H42.8949C43.142 32.9173 43.349 33.0035 43.5099 33.17C43.6708 33.3366 43.7513 33.5319 43.7513 33.7616C43.7513 33.9914 43.6708 34.1809 43.5099 34.3532C43.349 34.5198 43.142 34.6059 42.8949 34.6059H41.573C41.3259 34.6059 41.119 34.5198 40.958 34.3532Z" fill="#1E1E1E"/>
<path d="M18.9629 33.7671C18.9629 33.9969 19.0434 34.1922 19.2043 34.3587C19.3652 34.5253 19.5721 34.6115 19.8193 34.6115H21.1412C21.3883 34.6115 21.5952 34.5253 21.7561 34.3587C21.9171 34.1864 21.9975 33.9969 21.9975 33.7671C21.9975 33.5374 21.9171 33.3421 21.7561 33.1755C21.5952 33.009 21.3883 32.9228 21.1412 32.9228H19.8193C19.5721 32.9228 19.3652 33.009 19.2043 33.1755C19.0434 33.3478 18.9629 33.5374 18.9629 33.7671Z" fill="#1E1E1E"/>
<path d="M8.96253 36.5129C8.80161 36.3463 8.72114 36.1511 8.72114 35.9213C8.72114 35.6916 8.80161 35.502 8.96253 35.3297C9.12346 35.1631 9.33036 35.077 9.5775 35.077H10.8994C11.1465 35.077 11.3534 35.1631 11.5144 35.3297C11.6753 35.4963 11.7557 35.6916 11.7557 35.9213C11.7557 36.1511 11.6753 36.3406 11.5144 36.5129C11.3534 36.6795 11.1465 36.7656 10.8994 36.7656H9.5775C9.33036 36.7656 9.12346 36.6795 8.96253 36.5129Z" fill="#1E1E1E"/>
<path d="M15.8999 36.5129C15.739 36.3463 15.6585 36.1511 15.6585 35.9213C15.6585 35.6916 15.739 35.502 15.8999 35.3297C16.0608 35.1631 16.2677 35.077 16.5149 35.077H18.6989C18.946 35.077 19.1529 35.1631 19.3138 35.3297C19.4748 35.4963 19.5552 35.6916 19.5552 35.9213C19.5552 36.1511 19.4748 36.3406 19.3138 36.5129C19.1529 36.6795 18.946 36.7656 18.6989 36.7656H16.5149C16.2677 36.7656 16.0608 36.6795 15.8999 36.5129Z" fill="#1E1E1E"/>
<path d="M25.3828 34.3587C25.2219 34.1922 25.1414 33.9969 25.1414 33.7671C25.1414 33.5374 25.2219 33.3478 25.3828 33.1755C25.5437 33.009 25.7506 32.9228 25.9977 32.9228H27.3196C27.5668 32.9228 27.7737 33.009 27.9346 33.1755C28.0955 33.3421 28.176 33.5374 28.176 33.7671C28.176 33.9969 28.0955 34.1864 27.9346 34.3587C27.7737 34.5253 27.5668 34.6115 27.3196 34.6115H25.9977C25.7506 34.6115 25.5437 34.5253 25.3828 34.3587Z" fill="#1E1E1E"/>
<path d="M35.5326 35.9213C35.5326 36.1511 35.6131 36.3463 35.774 36.5129C35.9349 36.6795 36.1418 36.7656 36.389 36.7656H37.7108C37.958 36.7656 38.1649 36.6795 38.3258 36.5129C38.4867 36.3406 38.5672 36.1511 38.5672 35.9213C38.5672 35.6916 38.4867 35.4963 38.3258 35.3297C38.1649 35.1631 37.958 35.077 37.7108 35.077H36.389C36.1418 35.077 35.9349 35.1631 35.774 35.3297C35.6131 35.502 35.5326 35.6916 35.5326 35.9213Z" fill="#1E1E1E"/>
<path d="M47.1827 38.6608C47.0218 38.4942 46.9413 38.2989 46.9413 38.0692C46.9413 37.8394 47.0218 37.6499 47.1827 37.4776C47.3436 37.311 47.5505 37.2249 47.7977 37.2249H49.1195C49.3667 37.2249 49.5736 37.311 49.7345 37.4776C49.8954 37.6442 49.9759 37.8394 49.9759 38.0692C49.9759 38.2989 49.8954 38.4885 49.7345 38.6608C49.5736 38.8274 49.3667 38.9135 49.1195 38.9135H47.7977C47.5505 38.9135 47.3436 38.8274 47.1827 38.6608Z" fill="#1E1E1E"/>
<path d="M52.6425 38.0692C52.6425 38.2989 52.723 38.4942 52.8839 38.6608C53.0448 38.8274 53.2517 38.9135 53.4989 38.9135H54.8208C55.0679 38.9135 55.2748 38.8274 55.4357 38.6608C55.5967 38.4885 55.6771 38.2989 55.6771 38.0692C55.6771 37.8394 55.5967 37.6442 55.4357 37.4776C55.2748 37.311 55.0679 37.2249 54.8208 37.2249H53.4989C53.2517 37.2249 53.0448 37.311 52.8839 37.4776C52.723 37.6499 52.6425 37.8394 52.6425 38.0692Z" fill="#1E1E1E"/>
<path d="M52.8839 40.815C52.723 40.6484 52.6425 40.4531 52.6425 40.2234C52.6425 39.9936 52.723 39.8041 52.8839 39.6318C53.0448 39.4652 53.2517 39.379 53.4989 39.379H54.8208C55.0679 39.379 55.2748 39.4652 55.4357 39.6318C55.5967 39.7983 55.6771 39.9936 55.6771 40.2234C55.6771 40.4531 55.5967 40.6427 55.4357 40.815C55.2748 40.9815 55.0679 41.0677 54.8208 41.0677H53.4989C53.2517 41.0677 53.0448 40.9815 52.8839 40.815Z" fill="#1E1E1E"/>
<path d="M52.6425 42.3713C52.6425 42.601 52.723 42.7963 52.8839 42.9629C53.0448 43.1294 53.2517 43.2156 53.4989 43.2156H54.8208C55.0679 43.2156 55.2748 43.1294 55.4357 42.9629C55.5967 42.7905 55.6771 42.601 55.6771 42.3713C55.6771 42.1415 55.5967 41.9462 55.4357 41.7796C55.2748 41.6131 55.0679 41.5269 54.8208 41.5269H53.4989C53.2517 41.5269 53.0448 41.6131 52.8839 41.7796C52.723 41.952 52.6425 42.1415 52.6425 42.3713Z" fill="#1E1E1E"/>
<path d="M47.1827 40.815C47.0218 40.6484 46.9413 40.4531 46.9413 40.2234C46.9413 39.9936 47.0218 39.8041 47.1827 39.6318C47.3436 39.4652 47.5505 39.379 47.7977 39.379H49.1195C49.3667 39.379 49.5736 39.4652 49.7345 39.6318C49.8954 39.7983 49.9759 39.9936 49.9759 40.2234C49.9759 40.4531 49.8954 40.6427 49.7345 40.815C49.5736 40.9815 49.3667 41.0677 49.1195 41.0677H47.7977C47.5505 41.0677 47.3436 40.9815 47.1827 40.815Z" fill="#1E1E1E"/>
<path d="M46.9413 42.3713C46.9413 42.601 47.0218 42.7963 47.1827 42.9629C47.3436 43.1294 47.5505 43.2156 47.7977 43.2156H49.1195C49.3667 43.2156 49.5736 43.1294 49.7345 42.9629C49.8954 42.7905 49.9759 42.601 49.9759 42.3713C49.9759 42.1415 49.8954 41.9462 49.7345 41.7796C49.5736 41.6131 49.3667 41.5269 49.1195 41.5269H47.7977C47.5505 41.5269 47.3436 41.6131 47.1827 41.7796C47.0218 41.952 46.9413 42.1415 46.9413 42.3713Z" fill="#1E1E1E"/>
<path d="M35.774 38.6667C35.6131 38.5001 35.5326 38.3048 35.5326 38.0751C35.5326 37.8453 35.6131 37.6558 35.774 37.4835C35.9349 37.3169 36.1418 37.2308 36.389 37.2308H37.7108C37.958 37.2308 38.1649 37.3169 38.3258 37.4835C38.4867 37.6501 38.5672 37.8453 38.5672 38.0751C38.5672 38.3048 38.4867 38.4944 38.3258 38.6667C38.1649 38.8333 37.958 38.9194 37.7108 38.9194H36.389C36.1418 38.9194 35.9349 38.8333 35.774 38.6667Z" fill="#1E1E1E"/>
<path d="M35.5326 40.2289C35.5326 40.4586 35.6131 40.6539 35.774 40.8205C35.9349 40.987 36.1418 41.0732 36.389 41.0732H37.7108C37.958 41.0732 38.1649 40.987 38.3258 40.8205C38.4867 40.6482 38.5672 40.4586 38.5672 40.2289C38.5672 39.9991 38.4867 39.8038 38.3258 39.6373C38.1649 39.4707 37.958 39.3845 37.7108 39.3845H36.389C36.1418 39.3845 35.9349 39.4707 35.774 39.6373C35.6131 39.8096 35.5326 39.9991 35.5326 40.2289Z" fill="#1E1E1E"/>
<path d="M41.7745 42.9919C41.6135 42.8254 41.5331 42.6301 41.5331 42.4003C41.5331 42.1706 41.6135 41.981 41.7745 41.8087C41.9354 41.6422 42.1423 41.556 42.3894 41.556H43.7113C43.9585 41.556 44.1654 41.6422 44.3263 41.8087C44.4872 41.9753 44.5677 42.1706 44.5677 42.4003C44.5677 42.6301 44.4872 42.8196 44.3263 42.9919C44.1654 43.1585 43.9585 43.2447 43.7113 43.2447H42.3894C42.1423 43.2447 41.9354 43.1585 41.7745 42.9919Z" fill="#1E1E1E"/>
<path d="M40.7167 40.2289C40.7167 40.4586 40.7971 40.6539 40.958 40.8205C41.119 40.987 41.3259 41.0732 41.573 41.0732H42.8949C43.142 41.0732 43.349 40.987 43.5099 40.8205C43.6708 40.6482 43.7513 40.4586 43.7513 40.2289C43.7513 39.9991 43.6708 39.8038 43.5099 39.6373C43.349 39.4707 43.142 39.3845 42.8949 39.3845H41.573C41.3259 39.3845 41.119 39.4707 40.958 39.6373C40.7971 39.8096 40.7167 39.9991 40.7167 40.2289Z" fill="#1E1E1E"/>
<path d="M40.958 38.6667C40.7971 38.5001 40.7167 38.3048 40.7167 38.0751C40.7167 37.8453 40.7971 37.6558 40.958 37.4835C41.119 37.3169 41.3259 37.2308 41.573 37.2308H42.8949C43.142 37.2308 43.349 37.3169 43.5099 37.4835C43.6708 37.6501 43.7513 37.8453 43.7513 38.0751C43.7513 38.3048 43.6708 38.4944 43.5099 38.6667C43.349 38.8333 43.142 38.9194 42.8949 38.9194H41.573C41.3259 38.9194 41.119 38.8333 40.958 38.6667Z" fill="#1E1E1E"/>
<path d="M40.7167 35.9213C40.7167 36.1511 40.7971 36.3463 40.958 36.5129C41.119 36.6795 41.3259 36.7656 41.573 36.7656H42.8949C43.142 36.7656 43.349 36.6795 43.5099 36.5129C43.6708 36.3406 43.7513 36.1511 43.7513 35.9213C43.7513 35.6916 43.6708 35.4963 43.5099 35.3297C43.349 35.1631 43.142 35.077 42.8949 35.077H41.573C41.3259 35.077 41.119 35.1631 40.958 35.3297C40.7971 35.502 40.7167 35.6916 40.7167 35.9213Z" fill="#1E1E1E"/>
<path d="M25.1414 35.9213C25.1414 36.1511 25.2219 36.3463 25.3828 36.5129C25.5437 36.6795 25.7506 36.7656 25.9977 36.7656H27.3196C27.5668 36.7656 27.7737 36.6795 27.9346 36.5129C28.0955 36.3406 28.176 36.1511 28.176 35.9213C28.176 35.6916 28.0955 35.4963 27.9346 35.3297C27.7737 35.1631 27.5668 35.077 27.3196 35.077H25.9977C25.7506 35.077 25.5437 35.1631 25.3828 35.3297C25.2219 35.502 25.1414 35.6916 25.1414 35.9213Z" fill="#1E1E1E"/>
<path d="M25.3828 38.6667C25.2219 38.5001 25.1414 38.3048 25.1414 38.0751C25.1414 37.8453 25.2219 37.6558 25.3828 37.4835C25.5437 37.3169 25.7506 37.2308 25.9977 37.2308H29.9059C30.1531 37.2308 30.36 37.3169 30.5209 37.4835C30.6818 37.6501 30.7623 37.8453 30.7623 38.0751C30.7623 38.3048 30.6818 38.4944 30.5209 38.6667C30.36 38.8333 30.1531 38.9194 29.9059 38.9194H25.9977C25.7506 38.9194 25.5437 38.8333 25.3828 38.6667Z" fill="#1E1E1E"/>
<path d="M25.1414 40.2289C25.1414 40.4586 25.2219 40.6539 25.3828 40.8205C25.5437 40.987 25.7506 41.0732 25.9977 41.0732H27.3196C27.5668 41.0732 27.7737 40.987 27.9346 40.8205C28.0955 40.6482 28.176 40.4586 28.176 40.2289C28.176 39.9991 28.0955 39.8038 27.9346 39.6373C27.7737 39.4707 27.5668 39.3845 27.3196 39.3845H25.9977C25.7506 39.3845 25.5437 39.4707 25.3828 39.6373C25.2219 39.8096 25.1414 39.9991 25.1414 40.2289Z" fill="#1E1E1E"/>
<path d="M29.4864 40.8205C29.3255 40.6539 29.245 40.4586 29.245 40.2289C29.245 39.9991 29.3255 39.8096 29.4864 39.6373C29.6473 39.4707 29.8542 39.3845 30.1013 39.3845H31.4232C31.6704 39.3845 31.8773 39.4707 32.0382 39.6373C32.1991 39.8038 32.2796 39.9991 32.2796 40.2289C32.2796 40.4586 32.1991 40.6482 32.0382 40.8205C31.8773 40.987 31.6704 41.0732 31.4232 41.0732H30.1013C29.8542 41.0732 29.6473 40.987 29.4864 40.8205Z" fill="#1E1E1E"/>
<path d="M28.9003 35.9213C28.9003 36.1511 28.9808 36.3463 29.1417 36.5129C29.3027 36.6795 29.5096 36.7656 29.7567 36.7656H30.6188C30.8659 36.7656 31.0728 36.6795 31.2338 36.5129C31.3947 36.3406 31.4752 36.1511 31.4752 35.9213C31.4752 35.6916 31.3947 35.4963 31.2338 35.3297C31.0728 35.1631 30.8659 35.077 30.6188 35.077H29.7567C29.5096 35.077 29.3027 35.1631 29.1417 35.3297C28.9808 35.502 28.9003 35.6916 28.9003 35.9213Z" fill="#1E1E1E"/>
<path d="M29.6475 33.7671C29.6475 33.9969 29.728 34.1922 29.8889 34.3587C30.0498 34.5253 30.2567 34.6115 30.5039 34.6115H32.4005C32.6476 34.6115 32.8545 34.5253 33.0155 34.3587C33.1764 34.1864 33.2569 33.9969 33.2569 33.7671C33.2569 33.5374 33.1764 33.3421 33.0155 33.1755C32.8545 33.009 32.6476 32.9228 32.4005 32.9228H30.5039C30.2567 32.9228 30.0498 33.009 29.8889 33.1755C29.728 33.3478 29.6475 33.5374 29.6475 33.7671Z" fill="#1E1E1E"/>
<path d="M35.2338 34.3587C35.0728 34.1922 34.9924 33.9969 34.9924 33.7671C34.9924 33.5374 35.0728 33.3478 35.2338 33.1755C35.3947 33.009 35.6016 32.9228 35.8487 32.9228H37.458C37.7051 32.9228 37.912 33.009 38.0729 33.1755C38.2339 33.3421 38.3143 33.5374 38.3143 33.7671C38.3143 33.9969 38.2339 34.1864 38.0729 34.3587C37.912 34.5253 37.7051 34.6115 37.458 34.6115H35.8487C35.6016 34.6115 35.3947 34.5253 35.2338 34.3587Z" fill="#1E1E1E"/>
<path d="M51.4873 33.7616C51.4873 33.9914 51.5678 34.1867 51.7287 34.3532C51.8896 34.5198 52.0965 34.6059 52.3437 34.6059H53.6656C53.9127 34.6059 54.1196 34.5198 54.2805 34.3532C54.4415 34.1809 54.5219 33.9914 54.5219 33.7616C54.5219 33.5319 54.4415 33.3366 54.2805 33.17C54.1196 33.0035 53.9127 32.9173 53.6656 32.9173H52.3437C52.0965 32.9173 51.8896 33.0035 51.7287 33.17C51.5678 33.3423 51.4873 33.5319 51.4873 33.7616Z" fill="#1E1E1E"/>
<path d="M50.5735 38.6608C50.4126 38.4942 50.3321 38.2989 50.3321 38.0692C50.3321 37.8394 50.4126 37.6499 50.5735 37.4776C50.7345 37.311 50.9414 37.2249 51.1885 37.2249H51.5908C51.8379 37.2249 52.0449 37.311 52.2058 37.4776C52.3667 37.6442 52.4472 37.8394 52.4472 38.0692C52.4472 38.2989 52.3667 38.4885 52.2058 38.6608C52.0449 38.8274 51.8379 38.9135 51.5908 38.9135H51.1885C50.9414 38.9135 50.7345 38.8274 50.5735 38.6608Z" fill="#1E1E1E"/>
<path d="M46.4699 33.7671C46.4699 33.9969 46.5504 34.1922 46.7113 34.3587C46.8722 34.5253 47.0791 34.6115 47.3263 34.6115H48.9355C49.1827 34.6115 49.3896 34.5253 49.5505 34.3587C49.7114 34.1864 49.7919 33.9969 49.7919 33.7671C49.7919 33.5374 49.7114 33.3421 49.5505 33.1755C49.3896 33.009 49.1827 32.9228 48.9355 32.9228H47.3263C47.0791 32.9228 46.8722 33.009 46.7113 33.1755C46.5504 33.3478 46.4699 33.5374 46.4699 33.7671Z" fill="#1E1E1E"/>
<path d="M20.0665 36.5129C19.9056 36.3463 19.8251 36.1511 19.8251 35.9213C19.8251 35.6916 19.9056 35.502 20.0665 35.3297C20.2274 35.1631 20.4343 35.077 20.6815 35.077H22.0034C22.2505 35.077 22.4574 35.1631 22.6183 35.3297C22.7792 35.4963 22.8597 35.6916 22.8597 35.9213C22.8597 36.1511 22.7792 36.3406 22.6183 36.5129C22.4574 36.6795 22.2505 36.7656 22.0034 36.7656H20.6815C20.4343 36.7656 20.2274 36.6795 20.0665 36.5129Z" fill="#1E1E1E"/>
<path d="M19.8251 38.0751C19.8251 38.3048 19.9056 38.5001 20.0665 38.6667C20.2274 38.8333 20.4343 38.9194 20.6815 38.9194H22.0034C22.2505 38.9194 22.4574 38.8333 22.6183 38.6667C22.7792 38.4944 22.8597 38.3048 22.8597 38.0751C22.8597 37.8453 22.7792 37.6501 22.6183 37.4835C22.4574 37.3169 22.2505 37.2308 22.0034 37.2308H20.6815C20.4343 37.2308 20.2274 37.3169 20.0665 37.4835C19.9056 37.6558 19.8251 37.8453 19.8251 38.0751Z" fill="#1E1E1E"/>
<path d="M14.9802 34.3587C14.8193 34.1922 14.7388 33.9969 14.7388 33.7671C14.7388 33.5374 14.8193 33.3478 14.9802 33.1755C15.1412 33.009 15.3481 32.9228 15.5952 32.9228H17.8367C18.0838 32.9228 18.2907 33.009 18.4516 33.1755C18.6126 33.3421 18.693 33.5374 18.693 33.7671C18.693 33.9969 18.6126 34.1864 18.4516 34.3587C18.2907 34.5253 18.0838 34.6115 17.8367 34.6115H15.5952C15.3481 34.6115 15.1412 34.5253 14.9802 34.3587Z" fill="#1E1E1E"/>
<path d="M36.6937 42.9746C36.5328 42.8081 36.4523 42.6128 36.4523 42.383C36.4523 42.1533 36.5328 41.9638 36.6937 41.7914C36.8546 41.6249 37.0615 41.5387 37.3086 41.5387H40.4122C40.6594 41.5387 40.8663 41.6249 41.0272 41.7914C41.1881 41.958 41.2686 42.1533 41.2686 42.383C41.2686 42.6128 41.1881 42.8023 41.0272 42.9746C40.8663 43.1412 40.6594 43.2274 40.4122 43.2274H37.3086C37.0615 43.2274 36.8546 43.1412 36.6937 42.9746Z" fill="#1E1E1E"/>
<path d="M46.8263 35.9213C46.8263 36.1511 46.9067 36.3463 47.0677 36.5129C47.2286 36.6795 47.4355 36.7656 47.6826 36.7656H50.2115C50.4586 36.7656 50.6655 36.6795 50.8264 36.5129C50.9874 36.3406 51.0678 36.1511 51.0678 35.9213C51.0678 35.6916 50.9874 35.4963 50.8264 35.3297C50.6655 35.1631 50.4586 35.077 50.2115 35.077H47.6826C47.4355 35.077 47.2286 35.1631 47.0677 35.3297C46.9067 35.502 46.8263 35.6916 46.8263 35.9213Z" fill="#1E1E1E"/>
<path d="M51.6657 36.5129C51.5048 36.3463 51.4243 36.1511 51.4243 35.9213C51.4243 35.6916 51.5048 35.502 51.6657 35.3297C51.8267 35.1631 52.0336 35.077 52.2807 35.077H54.8095C55.0567 35.077 55.2636 35.1631 55.4245 35.3297C55.5854 35.4963 55.6659 35.6916 55.6659 35.9213C55.6659 36.1511 55.5854 36.3406 55.4245 36.5129C55.2636 36.6795 55.0567 36.7656 54.8095 36.7656H52.2807C52.0336 36.7656 51.8267 36.6795 51.6657 36.5129Z" fill="#1E1E1E"/>
<path d="M58.3496 35.9154C58.3496 36.1452 58.4301 36.3404 58.591 36.507C58.7519 36.6736 58.9588 36.7597 59.206 36.7597H60.5279C60.775 36.7597 60.9819 36.6736 61.1428 36.507C61.3037 36.3347 61.3842 36.1452 61.3842 35.9154C61.3842 35.6857 61.3037 35.4904 61.1428 35.3238C60.9819 35.1572 60.775 35.0711 60.5279 35.0711H59.206C58.9588 35.0711 58.7519 35.1572 58.591 35.3238C58.4301 35.4961 58.3496 35.6857 58.3496 35.9154Z" fill="#1E1E1E"/>
<path d="M58.591 38.6608C58.4301 38.4942 58.3496 38.2989 58.3496 38.0692C58.3496 37.8394 58.4301 37.6499 58.591 37.4776C58.7519 37.311 58.9588 37.2249 59.206 37.2249H60.5279C60.775 37.2249 60.9819 37.311 61.1428 37.4776C61.3037 37.6442 61.3842 37.8394 61.3842 38.0692C61.3842 38.2989 61.3037 38.4885 61.1428 38.6608C60.9819 38.8274 60.775 38.9135 60.5279 38.9135H59.206C58.9588 38.9135 58.7519 38.8274 58.591 38.6608Z" fill="#1E1E1E"/>
<path d="M58.3496 40.2234C58.3496 40.4531 58.4301 40.6484 58.591 40.815C58.7519 40.9815 58.9588 41.0677 59.206 41.0677H60.5279C60.775 41.0677 60.9819 40.9815 61.1428 40.815C61.3037 40.6427 61.3842 40.4531 61.3842 40.2234C61.3842 39.9936 61.3037 39.7983 61.1428 39.6318C60.9819 39.4652 60.775 39.379 60.5279 39.379H59.206C58.9588 39.379 58.7519 39.4652 58.591 39.6318C58.4301 39.8041 58.3496 39.9936 58.3496 40.2234Z" fill="#1E1E1E"/>
<path d="M64.5915 42.986C64.4305 42.8195 64.3501 42.6242 64.3501 42.3944C64.3501 42.1647 64.4305 41.9752 64.5915 41.8028C64.7524 41.6363 64.9593 41.5501 65.2064 41.5501H66.5283C66.7755 41.5501 66.9824 41.6363 67.1433 41.8028C67.3042 41.9694 67.3847 42.1647 67.3847 42.3944C67.3847 42.6242 67.3042 42.8137 67.1433 42.986C66.9824 43.1526 66.7755 43.2388 66.5283 43.2388H65.2064C64.9593 43.2388 64.7524 43.1526 64.5915 42.986Z" fill="#1E1E1E"/>
<path d="M63.5337 40.2234C63.5337 40.4531 63.6141 40.6484 63.7751 40.815C63.936 40.9815 64.1429 41.0677 64.39 41.0677H65.7119C65.9591 41.0677 66.166 40.9815 66.3269 40.815C66.4878 40.6427 66.5683 40.4531 66.5683 40.2234C66.5683 39.9936 66.4878 39.7983 66.3269 39.6318C66.166 39.4652 65.9591 39.379 65.7119 39.379H64.39C64.1429 39.379 63.936 39.4652 63.7751 39.6318C63.6141 39.8041 63.5337 39.9936 63.5337 40.2234Z" fill="#1E1E1E"/>
<path d="M63.7751 38.6608C63.6141 38.4942 63.5337 38.2989 63.5337 38.0692C63.5337 37.8394 63.6141 37.6499 63.7751 37.4776C63.936 37.311 64.1429 37.2249 64.39 37.2249H65.7119C65.9591 37.2249 66.166 37.311 66.3269 37.4776C66.4878 37.6442 66.5683 37.8394 66.5683 38.0692C66.5683 38.2989 66.4878 38.4885 66.3269 38.6608C66.166 38.8274 65.9591 38.9135 65.7119 38.9135H64.39C64.1429 38.9135 63.936 38.8274 63.7751 38.6608Z" fill="#1E1E1E"/>
<path d="M63.5337 35.9154C63.5337 36.1452 63.6141 36.3404 63.7751 36.507C63.936 36.6736 64.1429 36.7597 64.39 36.7597H65.7119C65.9591 36.7597 66.166 36.6736 66.3269 36.507C66.4878 36.3347 66.5683 36.1452 66.5683 35.9154C66.5683 35.6857 66.4878 35.4904 66.3269 35.3238C66.166 35.1572 65.9591 35.0711 65.7119 35.0711H64.39C64.1429 35.0711 63.936 35.1572 63.7751 35.3238C63.6141 35.4961 63.5337 35.6857 63.5337 35.9154Z" fill="#1E1E1E"/>
<path d="M63.7751 34.3473C63.6141 34.1808 63.5337 33.9855 63.5337 33.7557C63.5337 33.526 63.6141 33.3364 63.7751 33.1641C63.936 32.9976 64.1429 32.9114 64.39 32.9114H65.7119C65.9591 32.9114 66.166 32.9976 66.3269 33.1641C66.4878 33.3307 66.5683 33.526 66.5683 33.7557C66.5683 33.9855 66.4878 34.175 66.3269 34.3473C66.166 34.5139 65.9591 34.6001 65.7119 34.6001H64.39C64.1429 34.6001 63.936 34.5139 63.7751 34.3473Z" fill="#1E1E1E"/>
<path d="M57.5164 33.7616C57.5164 33.9914 57.5968 34.1867 57.7578 34.3532C57.9187 34.5198 58.1256 34.6059 58.3727 34.6059H60.2693C60.5165 34.6059 60.7234 34.5198 60.8843 34.3532C61.0452 34.1809 61.1257 33.9914 61.1257 33.7616C61.1257 33.5319 61.0452 33.3366 60.8843 33.17C60.7234 33.0035 60.5165 32.9173 60.2693 32.9173H58.3727C58.1256 32.9173 57.9187 33.0035 57.7578 33.17C57.5968 33.3423 57.5164 33.5319 57.5164 33.7616Z" fill="#1E1E1E"/>
<path d="M59.5048 42.9688C59.3439 42.8022 59.2634 42.6069 59.2634 42.3771C59.2634 42.1474 59.3439 41.9579 59.5048 41.7855C59.6657 41.619 59.8726 41.5328 60.1198 41.5328H63.2234C63.4705 41.5328 63.6774 41.619 63.8383 41.7855C63.9992 41.9521 64.0797 42.1474 64.0797 42.3771C64.0797 42.6069 63.9992 42.7964 63.8383 42.9688C63.6774 43.1353 63.4705 43.2215 63.2234 43.2215H60.1198C59.8726 43.2215 59.6657 43.1353 59.5048 42.9688Z" fill="#1E1E1E"/>
<path d="M24.4861 42.383C24.4861 42.6128 24.5666 42.8081 24.7275 42.9746C24.8885 43.1412 25.0954 43.2274 25.3425 43.2274H27.2966C27.5437 43.2274 27.7506 43.1412 27.9116 42.9746C28.0725 42.8023 28.153 42.6128 28.153 42.383C28.153 42.1533 28.0725 41.958 27.9116 41.7914C27.7506 41.6249 27.5437 41.5387 27.2966 41.5387H25.3425C25.0954 41.5387 24.8885 41.6249 24.7275 41.7914C24.5666 41.9638 24.4861 42.1533 24.4861 42.383Z" fill="#1E1E1E"/>
<path d="M30.5039 42.9746C30.3429 42.8081 30.2625 42.6128 30.2625 42.383C30.2625 42.1533 30.3429 41.9638 30.5039 41.7914C30.6648 41.6249 30.8717 41.5387 31.1188 41.5387H32.843C33.0902 41.5387 33.2971 41.6249 33.458 41.7914C33.6189 41.958 33.6994 42.1533 33.6994 42.383C33.6994 42.6128 33.6189 42.8023 33.458 42.9746C33.2971 43.1412 33.0902 43.2274 32.843 43.2274H31.1188C30.8717 43.2274 30.6648 43.1412 30.5039 42.9746Z" fill="#1E1E1E"/>
<path d="M15.6585 38.0751C15.6585 38.3048 15.739 38.5001 15.8999 38.6667C16.0608 38.8333 16.2677 38.9194 16.5149 38.9194H17.8368C18.0839 38.9194 18.2908 38.8333 18.4517 38.6667C18.6127 38.4944 18.6931 38.3048 18.6931 38.0751C18.6931 37.8453 18.6127 37.6501 18.4517 37.4835C18.2908 37.3169 18.0839 37.2308 17.8368 37.2308H16.5149C16.2677 37.2308 16.0608 37.3169 15.8999 37.4835C15.739 37.6558 15.6585 37.8453 15.6585 38.0751Z" fill="#1E1E1E"/>
<path d="M15.8999 40.8205C15.739 40.6539 15.6585 40.4586 15.6585 40.2289C15.6585 39.9991 15.739 39.8096 15.8999 39.6373C16.0608 39.4707 16.2677 39.3845 16.5149 39.3845H17.8368C18.0839 39.3845 18.2908 39.4707 18.4517 39.6373C18.6127 39.8038 18.6931 39.9991 18.6931 40.2289C18.6931 40.4586 18.6127 40.6482 18.4517 40.8205C18.2908 40.987 18.0839 41.0732 17.8368 41.0732H16.5149C16.2677 41.0732 16.0608 40.987 15.8999 40.8205Z" fill="#1E1E1E"/>
<path d="M14.8538 42.4691C14.8538 42.6989 14.9343 42.8942 15.0952 43.0607C15.2562 43.2273 15.4631 43.3135 15.7102 43.3135H18.8138C19.0609 43.3135 19.2678 43.2273 19.4287 43.0607C19.5897 42.8884 19.6701 42.6989 19.6701 42.4691C19.6701 42.2394 19.5897 42.0441 19.4287 41.8775C19.2678 41.711 19.0609 41.6248 18.8138 41.6248H15.7102C15.4631 41.6248 15.2562 41.711 15.0952 41.8775C14.9343 42.0498 14.8538 42.2394 14.8538 42.4691Z" fill="#1E1E1E"/>
<path d="M5.50871 34.3587C5.34778 34.1922 5.26732 33.9969 5.26732 33.7671C5.26732 33.5374 5.34778 33.3478 5.50871 33.1755C5.66963 33.009 5.87654 32.9228 6.12367 32.9228H9.80198C10.0491 32.9228 10.256 33.009 10.4169 33.1755C10.5779 33.3421 10.6583 33.5374 10.6583 33.7671C10.6583 33.9969 10.5779 34.1864 10.4169 34.3587C10.256 34.5253 10.0491 34.6115 9.80198 34.6115H6.12367C5.87654 34.6115 5.66963 34.5253 5.50871 34.3587Z" fill="#1E1E1E"/>
<path d="M8.72114 40.2289C8.72114 40.4586 8.80161 40.6539 8.96253 40.8205C9.12346 40.987 9.33036 41.0732 9.5775 41.0732H10.8994C11.1465 41.0732 11.3534 40.987 11.5144 40.8205C11.6753 40.6482 11.7557 40.4586 11.7557 40.2289C11.7557 39.9991 11.6753 39.8038 11.5144 39.6373C11.3534 39.4707 11.1465 39.3845 10.8994 39.3845H9.5775C9.33036 39.3845 9.12346 39.4707 8.96253 39.6373C8.80161 39.8096 8.72114 39.9991 8.72114 40.2289Z" fill="#1E1E1E"/>
<path d="M9.23285 42.9919C9.07192 42.8254 8.99146 42.6301 8.99146 42.4003C8.99146 42.1706 9.07192 41.981 9.23285 41.8087C9.39377 41.6422 9.60068 41.556 9.84781 41.556H11.8594C12.1065 41.556 12.3134 41.6422 12.4744 41.8087C12.6353 41.9753 12.7157 42.1706 12.7157 42.4003C12.7157 42.6301 12.6353 42.8196 12.4744 42.9919C12.3134 43.1585 12.1065 43.2447 11.8594 43.2447H9.84781C9.60068 43.2447 9.39377 43.1585 9.23285 42.9919Z" fill="#1E1E1E"/>
<path d="M3.69238 40.2289C3.69238 40.4586 3.77285 40.6539 3.93377 40.8205C4.0947 40.987 4.3016 41.0732 4.54874 41.0732H5.87063C6.11777 41.0732 6.32467 40.987 6.4856 40.8205C6.64652 40.6482 6.72699 40.4586 6.72699 40.2289C6.72699 39.9991 6.64652 39.8038 6.4856 39.6373C6.32467 39.4707 6.11777 39.3845 5.87063 39.3845H4.54874C4.3016 39.3845 4.0947 39.4707 3.93377 39.6373C3.77285 39.8096 3.69238 39.9991 3.69238 40.2289Z" fill="#1E1E1E"/>
<path d="M5.11791 42.9746C4.95698 42.8081 4.87652 42.6128 4.87652 42.383C4.87652 42.1533 4.95698 41.9638 5.11791 41.7914C5.27883 41.6249 5.48574 41.5387 5.73287 41.5387H7.85939C8.10653 41.5387 8.31344 41.6249 8.47436 41.7914C8.63529 41.958 8.71575 42.1533 8.71575 42.383C8.71575 42.6128 8.63529 42.8023 8.47436 42.9746C8.31344 43.1412 8.10653 43.2274 7.85939 43.2274H5.73287C5.48574 43.2274 5.27883 43.1412 5.11791 42.9746Z" fill="#1E1E1E"/>
<path d="M5.63504 38.0751C5.63504 38.3048 5.7155 38.5001 5.87643 38.6667C6.03735 38.8333 6.24426 38.9194 6.49139 38.9194H10.8077C11.0548 38.9194 11.2617 38.8333 11.4226 38.6667C11.5835 38.4944 11.664 38.3048 11.664 38.0751C11.664 37.8453 11.5835 37.6501 11.4226 37.4835C11.2617 37.3169 11.0548 37.2308 10.8077 37.2308H6.49139C6.24426 37.2308 6.03735 37.3169 5.87643 37.4835C5.7155 37.6558 5.63504 37.8453 5.63504 38.0751Z" fill="#1E1E1E"/>
</svg>
