<?xml version="1.0" encoding="UTF-8" standalone="no"?>
<!DOCTYPE svg PUBLIC "-//W3C//DTD SVG 1.1//EN" "http://www.w3.org/Graphics/SVG/1.1/DTD/svg11.dtd">
<svg width="100%" height="100%" viewBox="0 0 72 72" version="1.1" xmlns="http://www.w3.org/2000/svg" xmlns:xlink="http://www.w3.org/1999/xlink" xml:space="preserve" xmlns:serif="http://www.serif.com/" style="fill-rule:evenodd;clip-rule:evenodd;stroke-linejoin:round;stroke-miterlimit:2;">
    <rect x="0" y="0" width="72" height="72" style="fill:white;"/>
    <g transform="matrix(0.209332,0,0,0.209332,4.58989,-14.3984)">
        <path d="M164.21,211.48C161.19,208.36 159.68,204.72 159.68,200.55C159.68,196.38 161.19,192.75 164.21,189.62C167.22,186.5 171.03,184.94 175.6,184.94L200.12,184.94C204.69,184.94 208.5,186.5 211.51,189.62C214.52,192.74 216.04,196.38 216.04,200.55C216.04,204.72 214.53,208.35 211.51,211.48C208.49,214.6 204.69,216.16 200.12,216.16L175.6,216.16C171.02,216.16 167.22,214.6 164.21,211.48Z" style="fill-rule:nonzero;"/>
    </g>
    <g transform="matrix(0.209332,0,0,0.209332,4.58989,-14.3984)">
        <path d="M100.12,171.51C97.1,168.39 95.59,164.75 95.59,160.58C95.59,156.41 97.1,152.78 100.12,149.65C103.13,146.53 106.94,144.97 111.51,144.97L179.72,144.97C184.29,144.97 188.1,146.53 191.11,149.65C194.12,152.77 195.64,156.41 195.64,160.58C195.64,164.75 194.13,168.38 191.11,171.51C188.09,174.63 184.29,176.19 179.72,176.19L111.51,176.19C106.93,176.19 103.13,174.63 100.12,171.51Z" style="fill-rule:nonzero;"/>
    </g>
    <g transform="matrix(0.209332,0,0,0.209332,4.58989,-14.3984)">
        <path d="M164.21,291.39C161.19,288.27 159.68,284.63 159.68,280.46C159.68,276.29 161.19,272.66 164.21,269.53C167.22,266.41 171.03,264.85 175.6,264.85L200.12,264.85C204.69,264.85 208.5,266.41 211.51,269.53C214.52,272.65 216.04,276.29 216.04,280.46C216.04,284.63 214.53,288.26 211.51,291.39C208.49,294.51 204.69,296.07 200.12,296.07L175.6,296.07C171.02,296.07 167.22,294.51 164.21,291.39Z" style="fill-rule:nonzero;"/>
    </g>
    <g transform="matrix(0.209332,0,0,0.209332,4.58989,-14.3984)">
        <path d="M169.22,331.67C166.2,328.55 164.69,324.91 164.69,320.74C164.69,316.57 166.2,312.94 169.22,309.81C172.23,306.69 176.04,305.13 180.61,305.13L217.92,305.13C222.49,305.13 226.3,306.69 229.31,309.81C232.32,312.93 233.84,316.57 233.84,320.74C233.84,324.91 232.33,328.54 229.31,331.67C226.29,334.79 222.49,336.35 217.92,336.35L180.61,336.35C176.03,336.35 172.23,334.79 169.22,331.67Z" style="fill-rule:nonzero;"/>
    </g>
    <g transform="matrix(0.209332,0,0,0.209332,4.58989,-14.3984)">
        <path d="M71.01,291.39C67.99,288.27 66.48,284.63 66.48,280.46C66.48,276.29 67.99,272.66 71.01,269.53C74.02,266.41 77.83,264.85 82.4,264.85L106.92,264.85C111.49,264.85 115.3,266.41 118.31,269.53C121.32,272.65 122.84,276.29 122.84,280.46C122.84,284.63 121.33,288.26 118.31,291.39C115.29,294.51 111.49,296.07 106.92,296.07L82.4,296.07C77.82,296.07 74.02,294.51 71.01,291.39Z" style="fill-rule:nonzero;"/>
    </g>
    <g transform="matrix(0.209332,0,0,0.209332,4.58989,-14.3984)">
        <path d="M92.93,331.64C89.91,328.52 88.4,324.88 88.4,320.71C88.4,316.54 89.91,312.91 92.93,309.78C95.94,306.66 99.75,305.1 104.32,305.1L143.76,305.1C148.33,305.1 152.14,306.66 155.15,309.78C158.16,312.9 159.68,316.54 159.68,320.71C159.68,324.88 158.17,328.51 155.15,331.64C152.13,334.76 148.33,336.32 143.76,336.32L104.32,336.32C99.74,336.32 95.94,334.76 92.93,331.64Z" style="fill-rule:nonzero;"/>
    </g>
    <g transform="matrix(0.209332,0,0,0.209332,4.58989,-14.3984)">
        <path d="M106.97,251.43C103.95,248.31 102.44,244.67 102.44,240.5C102.44,236.33 103.95,232.7 106.97,229.57C109.98,226.45 113.79,224.89 118.36,224.89L198.4,224.89C202.97,224.89 206.78,226.45 209.79,229.57C212.8,232.69 214.32,236.33 214.32,240.5C214.32,244.67 212.81,248.3 209.79,251.43C206.77,254.55 202.97,256.11 198.4,256.11L118.36,256.11C113.78,256.11 109.98,254.55 106.97,251.43Z" style="fill-rule:nonzero;"/>
    </g>
</svg>
