<?xml version="1.0" encoding="UTF-8"?>
<svg version="1.1" xmlns="http://www.w3.org/2000/svg" width="1572" height="316">
<path d="M0 0 C1.78407713 1.52632094 3.55588809 3.06714846 5.3125 4.625 C6.01117187 5.22828125 6.70984375 5.8315625 7.4296875 6.453125 C17.74190952 15.97847064 27.07224819 30.21135416 28.74609375 44.265625 C28.98754321 51.14327623 28.72305758 57.11796302 24.3125 62.625 C19.2463651 68.04684225 14.70630448 71.15618215 7.1640625 71.9609375 C-1.33429792 72.06382322 -6.66246614 71.41120114 -12.92578125 65.51953125 C-16.93051542 61.28595513 -20.25897766 56.89691212 -23.3125 51.9375 C-30.40793547 40.43576671 -40.61356122 33.98758694 -53.6875 30.625 C-69.38232827 27.36758281 -86.10731467 30.1524065 -99.6875 38.625 C-110.38811707 45.96099006 -116.04419757 57.1656147 -118.6875 69.625 C-123.53400996 96.89078505 -125.08749346 132.96800943 -108.6875 156.625 C-101.47986804 166.49599492 -89.4746346 171.53359385 -77.6875 173.625 C-60.52048009 174.9012602 -45.63411099 173.64696957 -31.6875 162.625 C-26.1784583 157.48517097 -22.33607109 151.58796536 -18.40625 145.2109375 C-14.13980107 138.79187116 -8.96587619 133.69403822 -1.21875 132.125 C7.02191914 131.01389854 13.561648 132.28956385 20.625 136.6875 C25.87126192 142.42178629 28.5935514 148.04061528 28.9375 155.875 C28.13637681 173.81594295 16.89343804 188.68010534 4.3125 200.625 C-15.60582958 218.16088682 -40.846904 225.04939448 -66.9375 224.9375 C-67.6213678 224.93534485 -68.3052356 224.9331897 -69.00982666 224.93096924 C-79.20281349 224.87943083 -88.83682972 224.49539399 -98.6875 221.625 C-99.35813477 221.43164062 -100.02876953 221.23828125 -100.71972656 221.0390625 C-125.08636434 213.80608894 -146.24275132 199.06830581 -158.96875 176.7421875 C-170.96374 154.48141226 -172.87490535 130.88091572 -172.87280273 106.01953125 C-172.87497442 103.15869928 -172.89314598 100.29826338 -172.91210938 97.4375 C-172.94100162 88.18939271 -172.71249618 79.03619951 -171.80859375 69.828125 C-171.69356758 68.65014343 -171.69356758 68.65014343 -171.57621765 67.44836426 C-168.71457529 41.29773675 -156.53445481 18.15137614 -136.5 1 C-99.0199528 -28.36367836 -37.72400704 -30.24155936 0 0 Z " fill="#035377" transform="translate(738.6875,91.375)"/>
<path d="M0 0 C1.6822479 1.46142185 3.35075479 2.93893334 5 4.4375 C5.63164062 4.98792969 6.26328125 5.53835937 6.9140625 6.10546875 C16.88868689 15.32858034 27.1286419 30.6383734 28.23828125 44.390625 C28.42478709 52.67541073 27.90937741 58.24531657 22.1640625 64.40625 C15.42469776 70.70665229 9.29459213 71.94106218 0.1796875 71.734375 C-8.16885974 70.95490376 -12.52635422 66.39817258 -17.8515625 60.21875 C-19.9321191 57.52537491 -21.69138442 54.79339036 -23.4375 51.875 C-30.32239154 40.72053041 -40.32035197 34.18227691 -52.8515625 30.62890625 C-68.95070968 27.26525158 -86.02670967 29.61120582 -100 38.4375 C-111.77883897 46.67715731 -117.02722218 58.54950544 -119.65600586 72.28393555 C-121.17608698 81.8003554 -121.2039727 91.38472934 -121.1875 101 C-121.18609512 102.05873322 -121.18609512 102.05873322 -121.18466187 103.13885498 C-121.1257179 123.64845013 -120.82736268 144.46957097 -106 160.4375 C-94.55260729 170.33395563 -81.92078046 173.80155545 -67.0625 173.75 C-66.13759766 173.76611328 -65.21269531 173.78222656 -64.25976562 173.79882812 C-51.11627468 173.8080387 -38.74693668 168.65331597 -29.03125 159.75390625 C-25.82177151 156.09386635 -23.27859196 152.02220292 -20.64916992 147.93481445 C-16.3269432 141.25713716 -11.77456476 135.1286955 -4 132.4375 C4.96466567 130.64736395 11.94820007 131.77520306 19.75 136.5 C24.95153332 140.58605298 27.53109062 146.11811518 28.4453125 152.58984375 C29.03672278 169.1690453 19.85213838 183.5878592 9 195.4375 C-9.44801969 214.63614334 -34.96789199 224.20616958 -61.32815552 224.75660706 C-93.5140508 225.23549052 -121.76247593 217.60829912 -145.56640625 195 C-169.08338722 170.13334882 -173.39475643 138.39484722 -173.26074219 105.61547852 C-173.25002457 102.50712534 -173.26070344 99.3993514 -173.2734375 96.29101562 C-173.2986236 62.17128217 -167.49561556 32.13306637 -143.3125 6.375 C-106.66521314 -29.05785436 -39.7103665 -31.7682932 0 0 Z " fill="#035377" transform="translate(486,91.5625)"/>
<path d="M0 0 C6.69274944 6.40881462 8.43315416 14.18852416 8.73852539 23.23999023 C8.73328857 24.37637939 8.72805176 25.51276855 8.72265625 26.68359375 C8.71943359 27.92431641 8.71621094 29.16503906 8.71289062 30.44335938 C8.70032227 32.35858398 8.70032227 32.35858398 8.6875 34.3125 C8.68298828 35.61638672 8.67847656 36.92027344 8.67382812 38.26367188 C8.66209251 41.46749552 8.64567363 44.67122363 8.625 47.875 C9.45692368 47.86611755 10.28884735 47.85723511 11.14598083 47.8480835 C19.01625706 47.76767353 26.88639375 47.7069021 34.75698757 47.66775131 C38.80260798 47.6469462 42.84788672 47.61875974 46.89331055 47.57324219 C50.80315026 47.52952942 54.71266297 47.50580978 58.62272835 47.49549103 C60.10857345 47.48814494 61.59440224 47.47380041 63.08010674 47.45207977 C72.51372445 47.31974624 80.33847465 47.67402159 87.96484375 53.734375 C92.83331746 59.49560061 94.25050391 63.75554304 94.9375 71.3125 C94.34281097 78.09195491 92.43690588 84.30194217 87.58735657 89.25933838 C79.54515212 95.88070439 68.9527303 95.41510926 59.11328125 95.265625 C57.6492745 95.25814597 56.18525761 95.25246092 54.72123718 95.24847412 C50.90539932 95.23334807 47.09019008 95.19418298 43.27459717 95.1496582 C39.36609394 95.10842044 35.45748713 95.09040286 31.54882812 95.0703125 C23.9072684 95.02767247 16.26622295 94.95958441 8.625 94.875 C8.66225792 110.85277042 8.72225198 126.83027158 8.80890274 142.80784321 C8.8486181 150.22744902 8.88104849 157.64694992 8.89599609 165.06665039 C8.90905175 171.53786764 8.93611533 178.00885333 8.97961307 184.47994012 C9.00214069 187.90258638 9.01791597 191.32494797 9.01688385 194.74767494 C9.01925947 198.57993588 9.04639019 202.41130223 9.07910156 206.2434082 C9.07155602 207.92332352 9.07155602 207.92332352 9.06385803 209.63717651 C9.18281477 218.68731741 10.601986 227.28946549 17.25 233.875 C26.16863295 240.6864834 36.85171582 240.78352678 47.625 239.875 C53.8889869 238.98409117 59.90234373 237.43982192 65.92578125 235.52734375 C82.90452466 230.14188401 82.90452466 230.14188401 91.0859375 234.05078125 C97.38059204 237.82961108 100.30412832 241.91238495 102.625 248.875 C103.40445038 258.21562672 102.85574744 264.55044957 97.0234375 271.890625 C84.6266852 284.83066127 60.78817741 288.56675759 43.6640625 289.21875 C17.86275744 289.75226151 -4.66907262 285.44356669 -24.08984375 267.25390625 C-37.84057619 252.9390412 -43.53712171 232.72365435 -43.51544189 213.23526001 C-43.51841302 212.39033379 -43.52138414 211.54540757 -43.5244453 210.67487752 C-43.53308435 207.85697197 -43.53463645 205.03910913 -43.53613281 202.22119141 C-43.54076427 200.19537771 -43.54578937 198.16956488 -43.55117798 196.14375305 C-43.56426974 190.64993715 -43.57074028 185.15613345 -43.57518864 179.6623044 C-43.5781237 176.22807814 -43.58222926 172.79385518 -43.58669281 169.35963058 C-43.60035733 158.60883526 -43.61002991 147.85804753 -43.6138947 137.10724413 C-43.61837733 124.70716517 -43.63593917 112.30719634 -43.6648953 99.90715086 C-43.68651843 90.31374023 -43.69659927 80.72036057 -43.69793582 71.12692583 C-43.6989831 65.40063066 -43.70487512 59.67443917 -43.72275543 53.94816971 C-43.73924764 48.56206282 -43.74138596 43.17613743 -43.73261642 37.79001427 C-43.73184676 35.81678849 -43.73617949 33.84355291 -43.74607468 31.87035179 C-43.75882107 29.16958891 -43.7529029 26.46946638 -43.74249268 23.76870728 C-43.75054908 22.99427139 -43.75860548 22.2198355 -43.76690602 21.42193186 C-43.69510941 13.41772248 -41.65166769 6.31263999 -36.1171875 0.37890625 C-25.8605768 -8.47489447 -10.48814201 -8.417857 0 0 Z " fill="#035377" transform="translate(172.375,27.125)"/>
<path d="M0 0 C6.41706901 4.57401145 10.09882087 10.86268969 11.42914295 18.6334877 C11.83779407 22.11122204 11.9917341 25.44299338 11.99699402 28.94232178 C12.001259 30.23182739 12.00552399 31.52133301 12.00991821 32.84991455 C12.00956877 34.26159671 12.00910727 35.67327885 12.00854492 37.08496094 C12.01154016 38.58536868 12.01494352 40.08577566 12.01872253 41.58618164 C12.02753048 45.64836377 12.02989932 49.71052481 12.03053832 53.77271557 C12.03125074 56.31513626 12.03338871 58.85755164 12.03603554 61.39997101 C12.04527895 70.2826013 12.04937176 79.16521662 12.04858398 88.04785156 C12.04798373 96.30649939 12.05852782 104.56508179 12.07432765 112.82371306 C12.08743733 119.93140141 12.09276643 127.03906847 12.09212857 134.14676881 C12.09187456 138.38416233 12.09467216 142.62149769 12.10530663 146.85887909 C12.11504527 150.84801299 12.1150276 154.8370338 12.10778999 158.82617188 C12.10675122 160.28253598 12.10906453 161.73890734 12.11515045 163.19525909 C12.20902302 187.23364053 12.20902302 187.23364053 3.86328125 196.328125 C-4.19480032 202.69538038 -12.17954612 203.04604027 -22.13671875 202.328125 C-28.66805756 200.73832625 -33.64959952 195.95165653 -37.13671875 190.328125 C-40.64745071 182.14311823 -40.56258055 174.23735226 -40.52490234 165.48632812 C-40.52897328 163.89370871 -40.53431808 162.30109213 -40.54083252 160.70848083 C-40.55444991 156.40475661 -40.54923065 152.10124936 -40.53969526 147.79752159 C-40.53206965 143.28139053 -40.53915231 138.76527734 -40.54385376 134.24914551 C-40.54930288 126.66687708 -40.54214187 119.08469648 -40.52783203 111.50244141 C-40.51150714 102.75174753 -40.51679624 94.00126339 -40.53331125 85.25057459 C-40.54695019 77.72078492 -40.54883402 70.19105817 -40.54099524 62.66126013 C-40.53633194 58.17131967 -40.53565676 53.68147761 -40.54560471 49.19154358 C-40.55430722 44.96922612 -40.54819285 40.74717758 -40.53092194 36.52488899 C-40.52697457 34.98061124 -40.52806096 33.43631064 -40.53470993 31.89204216 C-40.57420735 21.78197268 -40.27796569 12.16339768 -33.75 3.90234375 C-25.08133581 -4.55642542 -10.54305785 -5.63884827 0 0 Z " fill="#055478" transform="translate(44.13671875,111.671875)"/>
<path d="M0 0 C5.14154925 2.79132365 7.70143779 6.10220484 10.4375 11.125 C11.29677877 12.6419816 12.15616088 14.15890466 13.015625 15.67578125 C13.71848633 16.93382568 13.71848633 16.93382568 14.43554688 18.21728516 C16.82433965 22.46626456 19.27173562 26.68099593 21.71313477 30.89990234 C23.60894694 34.17672472 25.49852049 37.45706718 27.38671875 40.73828125 C30.90148088 46.83903418 34.44587558 52.92209993 38 59 C37.99111755 58.33458694 37.98223511 57.66917389 37.9730835 56.9835968 C37.8845781 50.05694164 37.82425209 43.13044716 37.78027344 36.20336914 C37.76016028 33.61834183 37.73286614 31.03336 37.69824219 28.44848633 C37.64971346 24.73247045 37.62702765 21.01705622 37.609375 17.30078125 C37.57840729 15.56771477 37.57840729 15.56771477 37.54681396 13.79963684 C37.54458443 5.82425282 37.54458443 5.82425282 39.80175781 1.73901367 C42 0 42 0 45.5625 -0.125 C49 1 49 1 50.69058228 3.18606567 C52.19415376 6.41723578 52.38025104 8.59440035 52.38818359 12.14794922 C52.39764008 13.36626434 52.40709656 14.58457947 52.4168396 15.83981323 C52.41076691 17.14822174 52.40469421 18.45663025 52.3984375 19.8046875 C52.40046062 21.17082881 52.40337403 22.53696906 52.40713501 23.90310669 C52.41155023 26.76282051 52.40515557 29.62225261 52.39111328 32.48193359 C52.37405391 36.1324359 52.38384635 39.78227483 52.40183067 43.43275261 C52.41271826 46.25364089 52.40919899 49.07437431 52.4014473 51.89526749 C52.39849481 53.8909473 52.40754843 55.88663333 52.4168396 57.8822937 C52.31403926 71.19499196 52.31403926 71.19499196 47.3125 76.9375 C43.94166245 78.4862632 40.58479138 78.84779982 37 78 C31.31310709 74.70858105 28.74167657 68.9223034 25.625 63.375 C24.72720825 61.80625122 24.72720825 61.80625122 23.8112793 60.20581055 C22.53382354 57.97295087 21.260425 55.73776597 19.99072266 53.50048828 C17.28865471 48.7410065 14.54686773 44.00453637 11.80810547 39.26611328 C9.36515676 35.03832366 6.92990369 30.80612122 4.49536133 26.57348633 C3.02007185 24.03454324 1.51317367 21.51649519 0 19 C0.00444122 19.66763367 0.00888245 20.33526733 0.01345825 21.02313232 C0.05767278 27.96592063 0.08785867 34.908669 0.10986328 41.8515625 C0.11992668 44.4433759 0.13357864 47.03517793 0.15087891 49.62695312 C0.17511195 53.35028894 0.18647974 57.07347477 0.1953125 60.796875 C0.20563507 61.95741394 0.21595764 63.11795288 0.22659302 64.31365967 C0.22674408 65.39447815 0.22689514 66.47529663 0.22705078 67.58886719 C0.231492 68.53928894 0.23593323 69.48971069 0.24050903 70.46893311 C-0.01352472 73.14233134 -0.55174118 74.7518745 -2 77 C-4.87470493 78.43735246 -6.81894588 78.38172649 -10 78 C-12.6291003 75.40795853 -13.87738301 73.72069537 -14.50120544 70.05410767 C-14.50137161 68.96713593 -14.50153778 67.88016418 -14.50170898 66.76025391 C-14.51108994 65.52191803 -14.52047089 64.28358215 -14.53013611 63.00772095 C-14.51965505 61.66399443 -14.50828567 60.32027459 -14.49609375 58.9765625 C-14.49624888 57.58800175 -14.49774009 56.19944057 -14.50050354 54.81088257 C-14.50188587 51.90399983 -14.48936159 48.99761146 -14.46655273 46.09082031 C-14.43822092 42.37975858 -14.44089289 38.66952102 -14.45364285 34.95839882 C-14.46062733 32.09116686 -14.45277852 29.22412251 -14.44038582 26.35691452 C-14.43589438 24.98949276 -14.43551418 23.62205069 -14.43945122 22.25462723 C-14.45999687 8.83577435 -14.45999687 8.83577435 -11 3 C-7.43073454 0.00953434 -4.59507229 -0.6564389 0 0 Z " fill="#125D7F" transform="translate(1170,0)"/>
<path d="M0 0 C6.44099684 4.09476115 9.38011523 10.26362116 13 16.8125 C13.9808192 18.55029183 14.96166044 20.28807182 15.94404602 22.02497864 C16.95596412 23.81663052 17.96314302 25.61089402 18.97021484 27.40527344 C22.18667058 33.11993408 25.50216091 38.77683753 28.8125 44.4375 C29.40482422 45.45497314 29.99714844 46.47244629 30.60742188 47.52075195 C31.15591797 48.46136475 31.70441406 49.40197754 32.26953125 50.37109375 C32.75010986 51.19536865 33.23068848 52.01964355 33.72583008 52.86889648 C34.76699718 54.61029285 35.87456125 56.31184188 37 58 C36.99333817 57.34711502 36.98667633 56.69423004 36.97981262 56.02156067 C36.91342775 49.22462896 36.86818613 42.42778941 36.83520508 35.63061523 C36.82012137 33.09411885 36.79965169 30.55764852 36.77368164 28.02124023 C36.73728119 24.37477178 36.72026918 20.72864827 36.70703125 17.08203125 C36.69154739 15.94852737 36.67606354 14.8150235 36.66011047 13.64717102 C36.65988388 12.58644882 36.65965729 11.52572662 36.65942383 10.43286133 C36.65276199 9.50242508 36.64610016 8.57198883 36.63923645 7.61335754 C37.08081305 4.41459333 38.02805691 2.54609237 40 0 C43.58661035 -0.51237291 45.87803432 -0.82277483 48.875 1.375 C51.1535771 4.66627804 51.13626559 6.91621523 51.16113281 10.89916992 C51.17074036 12.13773239 51.1803479 13.37629486 51.19024658 14.65238953 C51.19509597 16.0117474 51.19937445 17.3711074 51.203125 18.73046875 C51.20887843 20.12331646 51.21463614 21.51616416 51.22039795 22.90901184 C51.23091132 25.83363209 51.23675096 28.75822484 51.24023438 31.68286133 C51.2457029 35.41745659 51.26969374 39.15168427 51.29820633 42.88616467 C51.31690367 45.76621023 51.32204218 48.6461688 51.32357025 51.52626991 C51.32658417 52.90209259 51.33456985 54.27791419 51.34775543 55.65367699 C51.46783443 69.1523511 51.46783443 69.1523511 48 75 C44.94928858 77.78922187 43.27776852 77.98655959 39.125 78.1875 C33.68126369 77.21628723 31.14941957 73.25180009 28 69 C25.55587942 65.11121465 23.36413701 61.10579333 21.1875 57.0625 C19.96495204 54.83516279 18.7409871 52.60860276 17.515625 50.3828125 C16.92072266 49.29774414 16.32582031 48.21267578 15.71289062 47.09472656 C13.35525859 42.83512797 10.91536202 38.62803722 8.4375 34.4375 C8.05682373 33.79111572 7.67614746 33.14473145 7.28393555 32.47875977 C5.35196362 29.21708361 3.37576527 25.98648939 1.36352539 22.77368164 C0.69698692 21.70894371 0.69698692 21.70894371 0.01698303 20.62269592 C-0.31862137 20.08720627 -0.65422577 19.55171661 -1 19 C-0.98889694 19.66541306 -0.97779388 20.33082611 -0.96635437 21.0164032 C-0.85572341 27.94300919 -0.78031661 34.86936418 -0.7253418 41.79663086 C-0.70019999 44.3816955 -0.66608185 46.96668907 -0.62280273 49.55151367 C-0.56214078 53.26759374 -0.53378581 56.98273386 -0.51171875 60.69921875 C-0.48591232 61.85459641 -0.4601059 63.00997406 -0.43351746 64.20036316 C-0.43039247 73.14320191 -0.43039247 73.14320191 -3.33520508 76.26098633 C-6 78 -6 78 -9.125 78.125 C-12.76607771 76.70023046 -13.334912 75.48470843 -15 72 C-15.38095093 69.09207153 -15.38095093 69.09207153 -15.38818359 65.85205078 C-15.39764008 64.63373566 -15.40709656 63.41542053 -15.4168396 62.16018677 C-15.41076691 60.85177826 -15.40469421 59.54336975 -15.3984375 58.1953125 C-15.40046062 56.82917119 -15.40337403 55.46303094 -15.40713501 54.09689331 C-15.41155023 51.23717949 -15.40515557 48.37774739 -15.39111328 45.51806641 C-15.37405391 41.8675641 -15.38384635 38.21772517 -15.40183067 34.56724739 C-15.41271826 31.74635911 -15.40919899 28.92562569 -15.4014473 26.10473251 C-15.39849481 24.1090527 -15.40754843 22.11336667 -15.4168396 20.1177063 C-15.31403926 6.80500804 -15.31403926 6.80500804 -10.3125 1.0625 C-6.90926706 -0.50114757 -3.59379428 -0.97198706 0 0 Z " fill="#125D7F" transform="translate(1449,238)"/>
<path d="M0 0 C7.28310802 5.98833326 12.64116594 12.70756072 13.8125 22.3125 C14.58603155 31.13075961 12.26359303 39.81321927 6.625 46.75 C0.16931835 53.42829136 -7.15483508 56.41536671 -16.3125 56.625 C-25.04992568 56.53684212 -32.20008218 54.08449812 -38.65234375 48.08984375 C-46.358165 39.16834587 -46.98442195 29.64265124 -46.1875 18.3125 C-44.56925886 10.59235595 -40.41815445 5.05392949 -34.1875 0.3125 C-22.75288017 -6.1652403 -11.61682624 -6.15008448 0 0 Z " fill="#045378" transform="translate(46.1875,24.6875)"/>
<path d="M0 0 C6.83591248 3.18371868 9.42590901 9.22738727 12.9375 15.625 C13.91480146 17.36340975 14.89212729 19.1018063 15.87084961 20.8394165 C16.89082785 22.65402177 17.90483237 24.47187851 18.91845703 26.29003906 C22.00974343 31.81893491 25.19568746 37.29324083 28.37356567 42.77264404 C29.96845087 45.52363267 31.55898732 48.27711835 33.1484375 51.03125 C33.94000244 52.40120117 33.94000244 52.40120117 34.74755859 53.79882812 C35.53336511 55.17988691 36.28939248 56.57878495 37 58 C37.00586624 57.33236633 37.01173248 56.66473267 37.01777649 55.97686768 C37.08166521 49.03377695 37.16607348 42.09115169 37.26245117 35.1484375 C37.29572432 32.55670301 37.32374871 29.96489565 37.34643555 27.37304688 C37.37993675 23.64942336 37.43225223 19.92646919 37.48828125 16.203125 C37.49467117 15.04258606 37.5010611 13.88204712 37.50764465 12.68634033 C37.52743881 11.60552185 37.54723297 10.52470337 37.56762695 9.41113281 C37.57873001 8.46071106 37.58983307 7.51028931 37.60127258 6.53106689 C38.07409454 3.52965807 38.8574805 2.13925362 41 0 C46.8874561 -0.73593201 46.8874561 -0.73593201 49.69448853 1.12088013 C51.628189 3.90419921 51.38141114 6.13739274 51.38818359 9.50341797 C51.39344055 10.15906738 51.39869751 10.8147168 51.40411377 11.49023438 C51.41731766 13.65779446 51.40857298 15.82461992 51.3984375 17.9921875 C51.40045863 19.50049989 51.40337039 21.00881132 51.40713501 22.51712036 C51.41155927 25.67963965 51.40512607 28.84190479 51.39111328 32.00439453 C51.37405036 36.0519639 51.38384311 40.09893521 51.40183067 44.14648247 C51.41269096 47.26238478 51.40921143 50.37814625 51.4014473 53.49405289 C51.39944996 54.98594356 51.40188818 56.47784715 51.40888596 57.96972275 C51.41653446 60.05942179 51.40484903 62.14816482 51.38818359 64.23779297 C51.38579681 65.42565399 51.38341003 66.61351501 51.38095093 67.83737183 C50.96142615 71.32023744 50.07057054 73.19771723 48 76 C45.18116264 77.92716431 43.00406957 78.30555588 39.625 78.0625 C38.53058594 78.01802734 38.53058594 78.01802734 37.4140625 77.97265625 C30.99015842 75.38438422 27.57343997 67.89598089 24.5 62.0625 C19.81770155 53.40332894 14.89657432 44.89953845 9.91015625 36.41235352 C9.06324219 34.96880493 9.06324219 34.96880493 8.19921875 33.49609375 C7.70252686 32.65232178 7.20583496 31.8085498 6.6940918 30.93920898 C4.41533407 26.98561852 2.20726552 22.99383638 0 19 C0.00444122 19.6403569 0.00888245 20.28071381 0.01345825 20.94047546 C0.0577188 27.60767383 0.08787783 34.27483042 0.10986328 40.94213867 C0.11991832 43.43011165 0.13356416 45.91807282 0.15087891 48.40600586 C0.17514866 51.98293981 0.18648819 55.55971745 0.1953125 59.13671875 C0.20563507 60.24834885 0.21595764 61.35997894 0.22659302 62.5052948 C0.22674408 63.54599625 0.22689514 64.58669769 0.22705078 65.65893555 C0.231492 66.5716069 0.23593323 67.48427826 0.24050903 68.42460632 C-0.13231254 72.41681534 -1.15983124 75.15983124 -4 78 C-7.51296936 78.4582134 -9.28679001 78.53437566 -12.16395569 76.37864685 C-14.56033321 73.27407262 -14.50114501 71.4647363 -14.50170898 67.56665039 C-14.51108994 66.26172134 -14.52047089 64.9567923 -14.53013611 63.61231995 C-14.5196567 62.19075872 -14.50828754 60.76920381 -14.49609375 59.34765625 C-14.49624878 57.8856143 -14.49773844 56.42357194 -14.50050354 54.96153259 C-14.50188718 51.89905604 -14.48933769 48.83704801 -14.46655273 45.7746582 C-14.43819274 41.85599887 -14.44089877 37.93811931 -14.45364285 34.0194025 C-14.46061076 31.00041589 -14.45279775 27.98160832 -14.44038582 24.96264458 C-14.43588031 23.51821009 -14.43552664 22.07375632 -14.43945122 20.62932014 C-14.44237335 18.60709583 -14.42366089 16.5848755 -14.40405273 14.56274414 C-14.39864975 13.41342911 -14.39324677 12.26411407 -14.38768005 11.07997131 C-13.85277771 6.83037462 -12.18920697 4.23167865 -9.25 1.1875 C-5.95322558 -0.55246428 -3.67943611 -0.44406988 0 0 Z " fill="#0A577B" transform="translate(983,119)"/>
<path d="M0 0 C1.18142578 -0.01611328 2.36285156 -0.03222656 3.58007812 -0.04882812 C12.67597646 -0.0538674 21.91259723 0.79966318 29.2734375 6.6953125 C34.45788974 12.1429349 36.13670612 18.02656024 36.375 25.4375 C36.07947574 32.42399671 35.05681579 37.28360156 29.87109375 42.125 C24.60763889 46.3125 24.60763889 46.3125 20.8125 46.3125 C23.18862405 50.61521112 26.09587809 54.13514179 29.3125 57.8125 C37.56459051 67.24658756 37.56459051 67.24658756 38.1875 72.4375 C37.8125 75.3125 37.8125 75.3125 36.6875 77.1875 C33.90510225 78.85693865 32.01183501 78.67454037 28.8125 78.3125 C26.42578125 76.3984375 26.42578125 76.3984375 24.125 73.6875 C23.27679687 72.69492188 22.42859375 71.70234375 21.5546875 70.6796875 C20.63770638 69.55967487 19.72378159 68.43715484 18.8125 67.3125 C18.31395508 66.7030957 17.81541016 66.09369141 17.30175781 65.46582031 C8.09649358 54.16448073 8.09649358 54.16448073 6.8125 50.3125 C2.1925 50.3125 -2.4275 50.3125 -7.1875 50.3125 C-7.14109375 51.91480469 -7.0946875 53.51710937 -7.046875 55.16796875 C-7.00935218 57.27862718 -6.97295257 59.38930578 -6.9375 61.5 C-6.90398437 62.55509766 -6.87046875 63.61019531 -6.8359375 64.69726562 C-6.73717207 72.52442612 -6.73717207 72.52442612 -9.015625 76.51171875 C-11.1875 78.3125 -11.1875 78.3125 -14.1875 78.9375 C-17.1875 78.3125 -17.1875 78.3125 -19.34364319 76.17588806 C-21.53945884 72.76593112 -21.68861439 70.90071425 -21.68920898 66.87329102 C-21.69858994 65.59168594 -21.70797089 64.31008087 -21.71763611 62.98963928 C-21.70715632 61.5985548 -21.6957871 60.20747677 -21.68359375 58.81640625 C-21.68374885 57.3806094 -21.68523962 55.94481214 -21.68800354 54.50901794 C-21.6893859 51.50378853 -21.67685919 48.49903731 -21.65405273 45.49389648 C-21.62569361 41.65270876 -21.62840034 37.81231665 -21.64114285 33.97107029 C-21.64811803 31.00694555 -21.64028948 28.04300278 -21.62788582 25.07890129 C-21.62338732 23.66320431 -21.62302045 22.24748769 -21.62695122 20.83178902 C-21.62988051 18.84819425 -21.61113547 16.86460378 -21.59155273 14.88110352 C-21.58614975 13.75479019 -21.58074677 12.62847687 -21.57518005 11.46803284 C-21.12989892 7.84365438 -20.07214412 5.42529766 -18.1875 2.3125 C-12.72189972 -0.8966121 -6.13800668 -0.01647345 0 0 Z M-7.1875 13.3125 C-7.1875 21.2325 -7.1875 29.1525 -7.1875 37.3125 C-3.660625 37.374375 -0.13375 37.43625 3.5 37.5 C4.60303467 37.52731201 5.70606934 37.55462402 6.8425293 37.58276367 C13.84065469 37.7010748 13.84065469 37.7010748 19.8125 34.3125 C22.67973254 30.85204693 23.34667629 27.81032179 23.16796875 23.30859375 C22.5712725 19.95791482 20.99286911 17.85626396 18.8125 15.3125 C15.68416786 13.327633 13.27959047 13.07451058 9.609375 13.1171875 C8.28437988 13.12468018 8.28437988 13.12468018 6.93261719 13.13232422 C5.82047852 13.15053223 4.70833984 13.16874023 3.5625 13.1875 C-1.75875 13.249375 -1.75875 13.249375 -7.1875 13.3125 Z " fill="#0F5B7E" transform="translate(1254.1875,118.6875)"/>
<path d="M0 0 C0.74889999 -0.00761353 1.49779999 -0.01522705 2.26939392 -0.02307129 C3.85721511 -0.03387721 5.4451074 -0.03672336 7.03295898 -0.03222656 C9.43273214 -0.03126289 11.82921156 -0.07268727 14.22851562 -0.1171875 C22.75432137 -0.1850467 30.38487605 -0.06527718 37.40234375 5.46875 C42.36397021 11.10168503 45.33656607 17.13136127 45.4296875 24.6875 C45.01888927 30.83894021 43.2479036 36.46298436 38.9453125 41.0078125 C36.32509802 43.2764539 33.59478446 45.11810201 30.40234375 46.46875 C32.34384157 51.16260648 35.91254717 54.67961429 39.23828125 58.42773438 C42.53677294 62.22368881 45.19167472 65.93445805 47.40234375 70.46875 C46.37908794 75.49200581 46.37908794 75.49200581 44.40234375 77.46875 C40.3480517 77.90521685 38.21067599 78.09152169 34.91796875 75.5546875 C33.79648438 74.21277344 33.79648438 74.21277344 32.65234375 72.84375 C31.81316406 71.85117188 30.97398438 70.85859375 30.109375 69.8359375 C29.20488752 68.71526849 28.30264841 67.59278211 27.40234375 66.46875 C26.90524902 65.8593457 26.4081543 65.24994141 25.89599609 64.62207031 C16.68531035 53.31764981 16.68531035 53.31764981 15.40234375 49.46875 C10.78234375 49.46875 6.16234375 49.46875 1.40234375 49.46875 C1.44875 51.15484375 1.49515625 52.8409375 1.54296875 54.578125 C1.58048611 56.79164897 1.6168863 59.00519207 1.65234375 61.21875 C1.68585938 62.32992187 1.719375 63.44109375 1.75390625 64.5859375 C1.76679687 65.65585938 1.7796875 66.72578125 1.79296875 67.828125 C1.81391602 68.81264648 1.83486328 69.79716797 1.85644531 70.81152344 C1.27365962 74.22175973 0.10741284 75.37808146 -2.59765625 77.46875 C-5.86636086 77.9357078 -7.69347384 78.12350278 -10.41015625 76.15625 C-12.84029129 72.70290021 -12.72874521 69.50532254 -12.74291992 65.42431641 C-12.74929977 64.17937408 -12.75567963 62.93443176 -12.76225281 61.65176392 C-12.76378164 60.29128051 -12.76489552 58.93079657 -12.765625 57.5703125 C-12.76883891 56.17410243 -12.77220308 54.77789271 -12.77571106 53.38168335 C-12.78169856 50.45464294 -12.78355137 47.52763204 -12.78295898 44.60058594 C-12.78285744 40.85581579 -12.79650357 37.11123556 -12.81373119 33.36651039 C-12.82486809 30.4822605 -12.82687767 27.59805627 -12.82634926 24.71378708 C-12.82752706 23.33353395 -12.83193762 21.95327955 -12.83968163 20.57304764 C-12.8495141 18.63938095 -12.84533082 16.70565849 -12.84057617 14.77197266 C-12.84200119 13.6729361 -12.84342621 12.57389954 -12.84489441 11.44155884 C-12.53212643 7.6808149 -11.48445254 4.84365131 -9.44750977 1.68554688 C-6.51203571 -0.24534961 -3.40171436 0.0009533 0 0 Z M1.40234375 12.46875 C1.40234375 20.38875 1.40234375 28.30875 1.40234375 36.46875 C5.09421875 36.530625 8.78609375 36.5925 12.58984375 36.65625 C13.74508545 36.68356201 14.90032715 36.71087402 16.09057617 36.73901367 C17.47273315 36.75025269 17.47273315 36.75025269 18.8828125 36.76171875 C19.82020264 36.7774292 20.75759277 36.79313965 21.72338867 36.80932617 C24.93341286 36.40123506 26.78796273 35.3413857 29.40234375 33.46875 C32.11708194 29.43777511 32.06121186 25.16216852 31.40234375 20.46875 C29.6914633 16.98362316 28.57844424 15.04896451 25.07543945 13.32080078 C22.31419275 12.44065182 20.20730669 12.23801426 17.3203125 12.2734375 C16.48008545 12.27843262 15.6398584 12.28342773 14.77416992 12.28857422 C13.19792847 12.31588623 13.19792847 12.31588623 11.58984375 12.34375 C6.54703125 12.405625 6.54703125 12.405625 1.40234375 12.46875 Z " fill="#0E5A7D" transform="translate(1390.59765625,0.53125)"/>
<path d="M0 0 C6.79775243 5.70687983 11.35235783 12.32955897 13.19140625 21.08203125 C13.46759368 25.09912983 13.46881988 29.11895481 13.50390625 33.14453125 C13.54741211 34.7677832 13.54741211 34.7677832 13.59179688 36.42382812 C13.67754346 47.41917906 10.86578485 56.98334807 3.19140625 65.08203125 C-4.72700284 72.37229731 -13.64620963 73.67792847 -24.15234375 73.42578125 C-34.14568681 72.48623618 -40.65364573 67.65313393 -47.30859375 60.4609375 C-53.54850291 52.71676452 -54.06739452 43.5234176 -54.12109375 33.95703125 C-54.12665283 33.12212158 -54.13221191 32.28721191 -54.13793945 31.42700195 C-54.01255303 20.55053327 -51.57431794 11.52364177 -44.17578125 3.2578125 C-32.04104033 -7.94565761 -13.64698291 -9.31942783 0 0 Z M-35.45922852 13.08203125 C-39.95451458 20.01122517 -40.67867145 25.55084526 -40.43359375 33.70703125 C-40.44003906 34.78726563 -40.44648437 35.8675 -40.453125 36.98046875 C-40.35616216 44.20860784 -39.35908479 50.06275383 -34.46801758 55.59960938 C-30.29780603 59.44541734 -25.98789886 61.04159494 -20.3515625 61.11328125 C-13.43493583 60.69849104 -9.27059779 58.8175913 -4.55859375 53.58203125 C1.68610004 44.66104012 1.19664244 33.15089417 -0.49609375 22.70703125 C-1.79024894 17.209103 -4.01417626 13.22230101 -8.52734375 9.765625 C-17.03401318 4.7627272 -28.93539329 5.17739316 -35.45922852 13.08203125 Z " fill="#0C597C" transform="translate(1326.80859375,242.91796875)"/>
<path d="M0 0 C9.96684016 8.58681614 12.17036709 17.47403251 13.1875 30.37890625 C13.52310393 41.76846476 11.71300731 53.48536518 4.0234375 62.25390625 C-4.04532757 69.99478864 -12.01514823 72.63369693 -23.10009766 72.46875 C-32.58762702 72.03698758 -39.20459865 68.7875133 -46.0234375 62.2578125 C-53.69827007 53.49090889 -55.49400266 41.99012672 -55.18359375 30.6328125 C-54.28791092 17.78833954 -51.67010229 8.72888251 -42.18359375 -0.2734375 C-30.09690095 -9.83035739 -11.96778055 -9.57422444 0 0 Z M-36.875 12.875 C-42.82726299 21.62832793 -41.83962476 32.82391216 -41 43 C-39.92354295 48.14953779 -38.30489871 51.58635974 -34.75 55.4375 C-27.72200164 59.43068089 -22.05291596 61.07074982 -14 59 C-7.81696375 56.42904678 -4.73907905 53.02597391 -2 47 C-0.62753255 42.46100496 -0.77743404 37.95493761 -0.75 33.25 C-0.729375 32.38117188 -0.70875 31.51234375 -0.6875 30.6171875 C-0.64462455 23.47842582 -1.88265534 17.53827893 -6.25 11.6875 C-10.66336941 7.37443444 -14.85242164 5.85182121 -20.9375 5.5625 C-27.45670228 5.79037485 -32.48950533 8.01643448 -36.875 12.875 Z " fill="#0C587C" transform="translate(937,244)"/>
<path d="M0 0 C8.0677014 5.79732172 12.28491287 12.73676209 14.3125 22.375 C14.70189621 26.2207065 14.73378969 30.01238228 14.6875 33.875 C14.69910156 34.84308594 14.71070313 35.81117188 14.72265625 36.80859375 C14.67720409 48.09588116 11.80427014 56.6775971 4.0625 65 C-3.19972641 72.05919642 -10.95023015 73.67894682 -20.83227539 73.68969727 C-30.9809819 73.48273076 -37.72223894 69.50186804 -44.6875 62.375 C-54.32180351 51.95953674 -53.30292439 38.29146393 -52.86669922 25.03759766 C-52.52338048 19.93646123 -51.25231753 15.76954717 -48.6875 11.375 C-48.26339844 10.64539063 -47.83929687 9.91578125 -47.40234375 9.1640625 C-42.32118626 1.54940309 -34.92335183 -2.88329767 -26.15625 -5.15625 C-16.75606665 -6.94109494 -8.14430116 -4.97784112 0 0 Z M-35.5625 14.4375 C-41.44719421 23.69053769 -40.43333649 36.57285715 -38.37890625 46.859375 C-36.8311709 52.49068329 -33.50746454 56.23641844 -28.6875 59.375 C-22.92238739 61.7488699 -17.69158656 61.74452718 -11.6875 60.375 C-5.57797066 57.2070959 -1.85473265 52.87669794 0.3125 46.375 C1.71581794 36.04250583 2.94725212 23.57892822 -2.8125 14.375 C-6.49010126 10.00250315 -10.72982338 7.79321375 -16.3671875 6.99609375 C-24.17064718 6.66104216 -30.46034199 8.26744846 -35.5625 14.4375 Z " fill="#0B587B" transform="translate(1184.6875,242.625)"/>
<path d="M0 0 C4.68440814 3.85162447 8.92319729 7.74340329 10.9375 13.5625 C10.8125 16.3125 10.8125 16.3125 9.6875 18.625 C7.25763878 20.81187509 6.10421383 21.38905148 2.8125 21.3125 C-0.47196345 18.98600506 -3.00338963 16.50099395 -5.8125 13.625 C-9.50694927 10.02777307 -12.2942523 9.01097497 -17.4375 8.9375 C-22.90551601 9.07602307 -26.86957725 9.88582109 -31.1875 13.3125 C-36.53980532 19.97428538 -36.93249399 26.60358337 -36.75 34.875 C-36.76095703 35.95974609 -36.77191406 37.04449219 -36.78320312 38.16210938 C-36.71113878 46.07477425 -35.57708184 51.83130784 -29.875 57.6875 C-23.16609466 61.74404741 -16.70448435 61.88608558 -9.1875 60.3125 C-5.03696793 58.20082579 -2.93764381 56.57606619 -1.1875 52.3125 C-0.73938863 49.95685404 -0.73938863 49.95685404 -0.5625 47.5625 C-0.48773437 46.76328125 -0.41296875 45.9640625 -0.3359375 45.140625 C-0.28695313 44.53734375 -0.23796875 43.9340625 -0.1875 43.3125 C-1.63382813 43.38210938 -1.63382813 43.38210938 -3.109375 43.453125 C-4.37265625 43.48921875 -5.6359375 43.5253125 -6.9375 43.5625 C-8.19046875 43.60890625 -9.4434375 43.6553125 -10.734375 43.703125 C-14.1875 43.3125 -14.1875 43.3125 -16.6484375 41.4921875 C-18.1875 39.3125 -18.1875 39.3125 -18.0625 36.1875 C-17.1875 33.3125 -17.1875 33.3125 -15.1875 31.3125 C-11.43830636 30.80399054 -7.65474813 30.89572988 -3.875 30.875 C-2.82892578 30.84212891 -1.78285156 30.80925781 -0.70507812 30.77539062 C4.03311691 30.74221421 6.93725232 30.76145775 11.0078125 33.32421875 C13.2972033 37.11509312 13.5325744 40.25641276 13.375 44.5625 C13.35119263 45.69703613 13.35119263 45.69703613 13.3269043 46.85449219 C13.0241325 54.28398473 11.27235243 59.47420873 6.375 65.125 C5.1065625 66.2078125 5.1065625 66.2078125 3.8125 67.3125 C2.6678125 68.364375 2.6678125 68.364375 1.5 69.4375 C-6.76685011 75.20506984 -15.48514554 75.16460299 -25.1875 74.3125 C-34.37860945 72.28611366 -42.07377819 66.1375324 -47.15625 58.2734375 C-51.10770508 50.7596858 -51.47692872 43.08332649 -51.5625 34.75 C-51.57643799 33.87585449 -51.59037598 33.00170898 -51.60473633 32.10107422 C-51.5313364 21.92994097 -48.7933209 13.13439248 -42.1875 5.3125 C-30.3888334 -6.30504672 -14.26756004 -7.55341414 0 0 Z " fill="#0D597C" transform="translate(1405.1875,241.6875)"/>
<path d="M0 0 C0.84671265 -0.00428513 1.69342529 -0.00857025 2.5657959 -0.01298523 C4.35098376 -0.01871279 6.13619496 -0.01924042 7.92138672 -0.01489258 C10.64721532 -0.01172923 13.3719614 -0.03522245 16.09765625 -0.06054688 C17.83593614 -0.06281975 19.57421893 -0.06352342 21.3125 -0.0625 C22.12408569 -0.07170975 22.93567139 -0.08091949 23.77185059 -0.09040833 C28.37449913 -0.05289794 31.43068853 0.29295949 35.15625 3.30078125 C36.21875 5.67578125 36.21875 5.67578125 36.15625 8.30078125 C34.65527344 10.93432617 34.65527344 10.93432617 32.15625 13.30078125 C29.26779859 13.74789507 26.98347933 13.88862844 24.109375 13.7890625 C23.33817322 13.78198776 22.56697144 13.77491302 21.7723999 13.7676239 C19.31601788 13.73969703 16.86193949 13.67696864 14.40625 13.61328125 C12.73831424 13.58819586 11.07034264 13.5653831 9.40234375 13.54492188 C5.31871741 13.4941305 1.24005249 13.39629638 -2.84375 13.30078125 C-2.84375 19.90078125 -2.84375 26.50078125 -2.84375 33.30078125 C0.44335938 33.24857422 0.44335938 33.24857422 3.796875 33.1953125 C5.9249542 33.17190013 8.05301892 33.15369323 10.18115234 33.13598633 C11.65745491 33.12092202 13.13371288 33.10046643 14.60986328 33.07446289 C16.73481258 33.03797386 18.85916901 33.02103192 20.984375 33.0078125 C22.9010498 32.98424683 22.9010498 32.98424683 24.85644531 32.96020508 C28.35028388 33.32080768 29.75932505 33.77336363 32.15625 36.30078125 C32.65625 39.30078125 32.65625 39.30078125 32.15625 42.30078125 C29.75932505 44.82819887 28.35028388 45.28075482 24.85644531 45.64135742 C23.57866211 45.62564697 22.30087891 45.60993652 20.984375 45.59375 C19.9607486 45.58738274 19.9607486 45.58738274 18.91644287 45.58088684 C16.74596996 45.56415097 14.57644021 45.52651084 12.40625 45.48828125 C10.93100303 45.47322771 9.45574145 45.45954047 7.98046875 45.44726562 C4.37174393 45.41682081 0.76504725 45.35809744 -2.84375 45.30078125 C-2.84375 51.90078125 -2.84375 58.50078125 -2.84375 65.30078125 C-0.36359375 65.254375 2.1165625 65.20796875 4.671875 65.16015625 C7.07794143 65.12894795 9.48398518 65.10466756 11.89013672 65.08105469 C13.56048702 65.06095732 15.23076713 65.03367442 16.90087891 64.99902344 C19.3038872 64.95042006 21.70596434 64.92779469 24.109375 64.91015625 C24.85431213 64.88951111 25.59924927 64.86886597 26.36676025 64.84759521 C29.86189175 64.84608761 31.80102878 65.04023016 34.65527344 67.13378906 C36.15625 69.30078125 36.15625 69.30078125 36.21875 72.36328125 C35.15625 75.30078125 35.15625 75.30078125 33.12451172 76.95947266 C29.26469665 78.70365953 25.75668806 78.73142654 21.6015625 78.69921875 C20.78178925 78.70208893 19.96201599 78.70495911 19.11740112 78.70791626 C17.38766792 78.70995238 15.65791146 78.70445418 13.92822266 78.69189453 C11.29666928 78.67587511 8.66666126 78.69173662 6.03515625 78.7109375 C4.34895498 78.70895418 2.66275465 78.70510867 0.9765625 78.69921875 C0.19717316 78.70529144 -0.58221619 78.71136414 -1.38522339 78.71762085 C-6.56842612 78.65175141 -10.32370668 77.92951494 -14.84375 75.30078125 C-16.84741634 71.51535825 -17.10053321 68.26975364 -17.1184082 64.02929688 C-17.13270622 62.16210999 -17.13270622 62.16210999 -17.14729309 60.25720215 C-17.14703167 58.90714489 -17.14609466 57.55708762 -17.14453125 56.20703125 C-17.14842138 54.81367872 -17.15275671 53.42032737 -17.15751648 52.02697754 C-17.16496349 49.11185861 -17.16469807 46.19686083 -17.15942383 43.28173828 C-17.15362488 39.55260529 -17.17057726 35.82396829 -17.1937685 32.0949173 C-17.20852287 29.21922932 -17.20937536 26.34366041 -17.20625877 23.46794128 C-17.20677093 22.09326697 -17.21198879 20.7185858 -17.22207069 19.34394836 C-17.23445218 17.42009292 -17.22569128 15.49613683 -17.21606445 13.57226562 C-17.21669388 12.47926147 -17.2173233 11.38625732 -17.2179718 10.26013184 C-16.79222077 6.89328746 -15.84316892 5.01884881 -13.84375 2.30078125 C-9.54184926 -0.30623751 -4.88195988 -0.00548242 0 0 Z " fill="#115C7F" transform="translate(1180.84375,118.69921875)"/>
<path d="M0 0 C1.33653625 -0.01902626 1.33653625 -0.01902626 2.70007324 -0.03843689 C4.13921082 -0.03403343 4.13921082 -0.03403343 5.60742188 -0.02954102 C6.59488403 -0.03478287 7.58234619 -0.04002472 8.59973145 -0.04542542 C10.68773457 -0.05184963 12.77577387 -0.05050348 14.86376953 -0.04199219 C18.06412949 -0.0334793 21.26270697 -0.06224336 24.46289062 -0.09399414 C26.49023384 -0.0956061 28.51758022 -0.09502872 30.54492188 -0.09204102 C31.50434692 -0.10327499 32.46377197 -0.11450897 33.45227051 -0.12608337 C34.78880676 -0.11201195 34.78880676 -0.11201195 36.15234375 -0.09765625 C36.93605347 -0.09749008 37.71976318 -0.09732391 38.52722168 -0.09715271 C40.57617188 0.40405273 40.57617188 0.40405273 42.36047363 2.24009705 C43.57617188 4.40405273 43.57617188 4.40405273 43.45117188 7.52905273 C42.57617188 10.40405273 42.57617188 10.40405273 39.57617188 12.40405273 C36.89022272 12.57567298 34.31072286 12.63629826 31.62695312 12.59936523 C30.46802803 12.59512039 30.46802803 12.59512039 29.28569031 12.59078979 C26.81985945 12.57960152 24.35439281 12.55449976 21.88867188 12.52905273 C20.21615108 12.51902117 18.54362459 12.50989563 16.87109375 12.50170898 C12.7725335 12.48136873 8.67476003 12.44221858 4.57617188 12.40405273 C4.57617188 19.00405273 4.57617188 25.60405273 4.57617188 32.40405273 C7.86328125 32.3518457 7.86328125 32.3518457 11.21679688 32.29858398 C13.34487608 32.27517162 15.4729408 32.25696471 17.60107422 32.23925781 C19.07737678 32.2241935 20.55363476 32.20373791 22.02978516 32.17773438 C24.15473445 32.14124535 26.27909089 32.1243034 28.40429688 32.11108398 C30.32097168 32.08751831 30.32097168 32.08751831 32.27636719 32.06347656 C35.76859654 32.42391308 37.18279825 32.87413692 39.57617188 35.40405273 C40.02248337 38.46447439 40.20709355 40.42122943 38.50463867 43.07324219 C35.59738084 45.07950405 32.68579899 44.7739931 29.28320312 44.69702148 C28.22416023 44.69065422 28.22416023 44.69065422 27.14372253 44.68415833 C24.89164884 44.66738307 22.64047445 44.62973516 20.38867188 44.59155273 C18.86069002 44.57650431 17.33269412 44.56281617 15.8046875 44.55053711 C12.06122491 44.52003633 8.31970331 44.46131922 4.57617188 44.40405273 C4.57617188 51.00405273 4.57617188 57.60405273 4.57617188 64.40405273 C7.05632812 64.35764648 9.53648438 64.31124023 12.09179688 64.26342773 C14.4978633 64.23221944 16.90390706 64.20793904 19.31005859 64.18432617 C20.9804089 64.16422881 22.650689 64.1369459 24.32080078 64.10229492 C26.72380908 64.05369154 29.12588621 64.03106618 31.52929688 64.01342773 C32.27423401 63.99278259 33.01917114 63.97213745 33.78668213 63.9508667 C37.29739018 63.94935238 39.20630665 64.12405583 42.04394531 66.2722168 C43.57617188 68.40405273 43.57617188 68.40405273 44.13867188 70.90405273 C43.57617188 73.40405273 43.57617188 73.40405273 41.60522461 75.52929688 C37.49066219 78.0759016 34.29478648 77.96435768 29.54882812 77.90014648 C28.68229111 77.90160172 27.81575409 77.90305695 26.92295837 77.90455627 C25.09484487 77.90290029 23.266717 77.89137267 21.4387207 77.87060547 C18.65124805 77.84168322 15.86568286 77.84999619 13.078125 77.86303711 C11.29751686 77.85679801 9.51691469 77.84840572 7.73632812 77.83764648 C6.49388084 77.84204994 6.49388084 77.84204994 5.22633362 77.84654236 C0.33226877 77.76738637 -3.28523888 77.29888804 -7.42382812 74.40405273 C-9.35167313 70.64214226 -9.6763081 67.50907009 -9.68261719 63.31616211 C-9.68892151 62.11141235 -9.69522583 60.9066626 -9.70172119 59.66540527 C-9.69767273 58.37259644 -9.69362427 57.0797876 -9.68945312 55.74780273 C-9.69080163 54.39929128 -9.6927437 53.0507803 -9.69525146 51.70227051 C-9.69819403 48.88130039 -9.69393314 46.06045726 -9.68457031 43.23950195 C-9.67317617 39.63152711 -9.67974031 36.02384987 -9.69171524 32.41588593 C-9.69895736 29.63285091 -9.69663514 26.84988593 -9.69145966 24.06684875 C-9.68948495 22.09213059 -9.69553734 20.11740966 -9.70172119 18.1427002 C-9.69541687 16.93795044 -9.68911255 15.73320068 -9.68261719 14.49194336 C-9.681026 13.43446899 -9.67943481 12.37699463 -9.67779541 11.28747559 C-9.33981707 7.45023147 -8.39783217 4.69494755 -6.07531738 1.61680603 C-3.93646049 0.04615958 -2.64076926 0.01820577 0 0 Z " fill="#115C7E" transform="translate(1318.423828125,0.595947265625)"/>
<path d="M0 0 C1.33653625 -0.01902626 1.33653625 -0.01902626 2.70007324 -0.03843689 C4.13921082 -0.03403343 4.13921082 -0.03403343 5.60742188 -0.02954102 C6.59488403 -0.03478287 7.58234619 -0.04002472 8.59973145 -0.04542542 C10.68773457 -0.05184963 12.77577387 -0.05050348 14.86376953 -0.04199219 C18.06412949 -0.0334793 21.26270697 -0.06224336 24.46289062 -0.09399414 C26.49023384 -0.0956061 28.51758022 -0.09502872 30.54492188 -0.09204102 C31.50434692 -0.10327499 32.46377197 -0.11450897 33.45227051 -0.12608337 C34.78880676 -0.11201195 34.78880676 -0.11201195 36.15234375 -0.09765625 C36.93605347 -0.09749008 37.71976318 -0.09732391 38.52722168 -0.09715271 C40.57617188 0.40405273 40.57617188 0.40405273 42.36047363 2.24009705 C43.57617188 4.40405273 43.57617188 4.40405273 43.45117188 7.52905273 C42.57617188 10.40405273 42.57617188 10.40405273 39.57617188 12.40405273 C36.89022272 12.57567298 34.31072286 12.63629826 31.62695312 12.59936523 C30.46802803 12.59512039 30.46802803 12.59512039 29.28569031 12.59078979 C26.81985945 12.57960152 24.35439281 12.55449976 21.88867188 12.52905273 C20.21615108 12.51902117 18.54362459 12.50989563 16.87109375 12.50170898 C12.7725335 12.48136873 8.67476003 12.44221858 4.57617188 12.40405273 C4.57617188 19.00405273 4.57617188 25.60405273 4.57617188 32.40405273 C7.86328125 32.3518457 7.86328125 32.3518457 11.21679688 32.29858398 C13.34487608 32.27517162 15.4729408 32.25696471 17.60107422 32.23925781 C19.07737678 32.2241935 20.55363476 32.20373791 22.02978516 32.17773438 C24.15473445 32.14124535 26.27909089 32.1243034 28.40429688 32.11108398 C30.32097168 32.08751831 30.32097168 32.08751831 32.27636719 32.06347656 C35.76859654 32.42391308 37.18279825 32.87413692 39.57617188 35.40405273 C40.02248337 38.46447439 40.20709355 40.42122943 38.50463867 43.07324219 C35.59738084 45.07950405 32.68579899 44.7739931 29.28320312 44.69702148 C28.22416023 44.69065422 28.22416023 44.69065422 27.14372253 44.68415833 C24.89164884 44.66738307 22.64047445 44.62973516 20.38867188 44.59155273 C18.86069002 44.57650431 17.33269412 44.56281617 15.8046875 44.55053711 C12.06122491 44.52003633 8.31970331 44.46131922 4.57617188 44.40405273 C4.57617188 51.00405273 4.57617188 57.60405273 4.57617188 64.40405273 C7.05632812 64.35764648 9.53648438 64.31124023 12.09179688 64.26342773 C14.4978633 64.23221944 16.90390706 64.20793904 19.31005859 64.18432617 C20.9804089 64.16422881 22.650689 64.1369459 24.32080078 64.10229492 C26.72380908 64.05369154 29.12588621 64.03106618 31.52929688 64.01342773 C32.27423401 63.99278259 33.01917114 63.97213745 33.78668213 63.9508667 C37.2588382 63.949369 39.22488263 64.15172207 42.07910156 66.2019043 C43.57617188 68.40405273 43.57617188 68.40405273 43.57617188 72.02905273 C42.57617188 75.40405273 42.57617188 75.40405273 41.07177734 76.59619141 C37.28365734 77.82245721 33.6046542 77.70915185 29.64648438 77.70483398 C28.77853241 77.70911911 27.91058044 77.71340424 27.0163269 77.71781921 C25.18228018 77.72355531 23.34821071 77.72406808 21.51416016 77.71972656 C18.7180262 77.71657175 15.92295595 77.74001638 13.12695312 77.76538086 C11.3417982 77.76765455 9.55664045 77.76835703 7.77148438 77.76733398 C6.94004913 77.77654373 6.10861389 77.78575348 5.25198364 77.79524231 C0.35199261 77.7564838 -3.32341774 77.38220835 -7.42382812 74.40405273 C-9.14898003 70.27848927 -9.6757957 66.74219651 -9.68261719 62.29443359 C-9.68892151 61.10978012 -9.69522583 59.92512665 -9.70172119 58.70457458 C-9.69767273 57.43880081 -9.69362427 56.17302704 -9.68945312 54.86889648 C-9.69136658 53.55748184 -9.69328003 52.2460672 -9.69525146 50.89491272 C-9.69819068 48.12699644 -9.69394335 45.35920975 -9.68457031 42.59130859 C-9.67316517 39.05174182 -9.67974939 35.51247805 -9.69171524 31.97292233 C-9.7006967 28.58405634 -9.69440136 25.19527106 -9.68945312 21.80639648 C-9.69350159 20.53859848 -9.69755005 19.27080048 -9.70172119 17.96458435 C-9.69541687 16.78308304 -9.68911255 15.60158173 -9.68261719 14.38427734 C-9.681026 13.34758408 -9.67943481 12.31089081 -9.67779541 11.24278259 C-9.33665098 7.42962657 -8.38356261 4.6760354 -6.07531738 1.61680603 C-3.93646049 0.04615958 -2.64076926 0.01820577 0 0 Z " fill="#105C7E" transform="translate(1096.423828125,0.595947265625)"/>
<path d="M0 0 C1.21157021 -0.01441132 1.21157021 -0.01441132 2.44761658 -0.02911377 C3.31640945 -0.03336365 4.18520233 -0.03761353 5.08032227 -0.04199219 C5.97662857 -0.04769226 6.87293488 -0.05339233 7.79640198 -0.05926514 C9.69189271 -0.06870883 11.58739982 -0.07524661 13.48291016 -0.07910156 C16.38220785 -0.08881852 19.28079996 -0.11985221 22.17993164 -0.15136719 C24.02172431 -0.15789634 25.86352204 -0.16314716 27.70532227 -0.16699219 C29.00547523 -0.18551239 29.00547523 -0.18551239 30.33189392 -0.20440674 C33.9047596 -0.19118319 36.31052813 -0.17731956 39.51416016 1.49414062 C40.95922852 3.16113281 40.95922852 3.16113281 41.33422852 6.16113281 C40.95922852 9.16113281 40.95922852 9.16113281 38.95922852 12.16113281 C35.32689749 13.37190982 32.00800865 13.28557445 28.22875977 13.25878906 C27.47833908 13.25737411 26.7279184 13.25595917 25.95475769 13.25450134 C23.56037391 13.24890841 21.16608399 13.23635725 18.77172852 13.22363281 C17.14738091 13.2186169 15.52303183 13.21405415 13.89868164 13.20996094 C9.91879877 13.19979261 5.93911858 13.18021593 1.95922852 13.16113281 C1.95922852 19.76113281 1.95922852 26.36113281 1.95922852 33.16113281 C4.23442383 33.13792969 6.50961914 33.11472656 8.85375977 33.09082031 C11.05793704 33.0752217 13.26210815 33.06307817 15.46630859 33.05126953 C16.99791212 33.04121347 18.52949647 33.02756681 20.06103516 33.01025391 C22.26282487 32.98598783 24.4643607 32.97464594 26.66625977 32.96582031 C27.35073685 32.95549774 28.03521393 32.94517517 28.74043274 32.93453979 C32.38984513 32.933679 33.83071353 33.07545616 36.95922852 35.16113281 C37.39672852 38.59863281 37.39672852 38.59863281 36.95922852 42.16113281 C34.5842795 44.72444746 33.15851094 45.14056467 29.65942383 45.50170898 C28.38164063 45.48599854 27.10385742 45.47028809 25.78735352 45.45410156 C24.76372711 45.4477343 24.76372711 45.4477343 23.71942139 45.4412384 C21.54894847 45.42450253 19.37941873 45.3868624 17.20922852 45.34863281 C15.73398155 45.33357927 14.25871997 45.31989203 12.78344727 45.30761719 C9.17472245 45.27717238 5.56802576 45.218449 1.95922852 45.16113281 C1.95922852 51.76113281 1.95922852 58.36113281 1.95922852 65.16113281 C5.80514648 65.10892578 5.80514648 65.10892578 9.72875977 65.05566406 C12.21092617 65.03227046 14.69308031 65.0140528 17.17529297 64.99633789 C18.90093479 64.98124765 20.62653823 64.96077306 22.35205078 64.93481445 C24.83188339 64.89844072 27.31120916 64.88140922 29.79125977 64.86816406 C30.56323196 64.85268021 31.33520416 64.83719635 32.13056946 64.82124329 C37.44923503 64.81957064 37.44923503 64.81957064 39.94628906 66.49194336 C41.5442673 69.12519889 41.33429184 71.16062622 40.95922852 74.16113281 C39.40676467 76.21668512 38.51060261 77.05226475 35.96170044 77.55554199 C34.82183182 77.56817078 34.82183182 77.56817078 33.65893555 77.58105469 C32.79438751 77.59696655 31.92983948 77.61287842 31.03909302 77.62927246 C30.10781586 77.62947388 29.1765387 77.62967529 28.21704102 77.62988281 C26.77625687 77.6413031 26.77625687 77.6413031 25.30636597 77.6529541 C23.2738505 77.66376195 21.24127946 77.66660543 19.20874023 77.66210938 C16.10248775 77.66113852 12.998717 77.70272151 9.89282227 77.74707031 C7.917567 77.75227842 5.94230315 77.75496549 3.96704102 77.75488281 C3.03981232 77.77127808 2.11258362 77.78767334 1.15725708 77.80456543 C-0.14902145 77.7906073 -0.14902145 77.7906073 -1.48168945 77.77636719 C-2.24319305 77.77842163 -3.00469666 77.78047607 -3.78927612 77.78259277 C-7.30141391 76.81316905 -8.8195196 74.98952277 -11.04077148 72.16113281 C-11.66896057 69.08789062 -11.66896057 69.08789062 -11.671875 65.61425781 C-11.68440811 64.3094043 -11.69694122 63.00455078 -11.70985413 61.66015625 C-11.69758545 60.24380493 -11.68416537 58.82746318 -11.66967773 57.41113281 C-11.67050695 55.95051904 -11.67296834 54.48990536 -11.67698669 53.02929688 C-11.67984097 49.97269499 -11.66518142 46.91682738 -11.63769531 43.86035156 C-11.60361177 39.94939222 -11.60963347 36.03974533 -11.62835789 32.12872314 C-11.63894473 29.11398448 -11.62997506 26.09954933 -11.61497307 23.08483887 C-11.60980306 21.64319765 -11.61025871 20.20152459 -11.61651802 18.7598877 C-11.62198946 16.74255255 -11.59870039 14.72520183 -11.57421875 12.70800781 C-11.56802017 11.56170898 -11.56182159 10.41541016 -11.55543518 9.234375 C-10.92844529 5.49039265 -9.7044666 3.82379018 -7.04077148 1.16113281 C-4.35201894 0.26488196 -2.76169379 0.02657265 0 0 Z " fill="#0A577B" transform="translate(1531.040771484375,237.8388671875)"/>
<path d="M0 0 C2.76515598 2.26354039 2.96507434 2.75552039 3.5 6.5 C3 10 3 10 1.0625 12.125 C-3.52019118 13.43434034 -6.7136372 11.77895558 -11 10 C-18.86006698 6.75345059 -27.08278048 7.18498861 -35 10 C-36.31758871 15.89312376 -36.31758871 15.89312376 -34.5625 21.375 C-29.39539459 24.65170099 -24.14089053 25.98507021 -18.22851562 27.32763672 C-9.64381971 29.30642108 -0.78661003 31.57021611 4.5625 39.1875 C7.83873821 45.59753129 7.97319796 51.92674328 5.8125 58.75 C1.52379974 66.44008323 -3.039243 70.08219123 -11.24609375 72.72265625 C-23.03652408 75.64606344 -35.32297701 73.67895807 -45.94140625 67.953125 C-48.71232772 66.21712601 -50.16301958 64.75547063 -52 62 C-51.55555556 56.55555556 -51.55555556 56.55555556 -49 54 C-43.12371037 53.1430411 -39.53300433 54.94714933 -34.4296875 57.80859375 C-28.47820801 60.72692373 -20.99774082 61.00596746 -14.609375 59.3984375 C-10.5639353 58.12502183 -10.5639353 58.12502183 -8 55 C-7.3912109 50.90686127 -7.3912109 50.90686127 -8 47 C-13.59499653 42.05666696 -20.67861637 41.05638033 -27.76953125 39.37695312 C-36.86584932 37.08727636 -43.47545294 33.70088378 -49 26 C-51.02514522 19.92456434 -51.10046489 12.54764469 -48.5 6.625 C-44.78340299 0.3961388 -39.32962021 -2.83842809 -32.5 -4.875 C-21.36614647 -7.46319979 -9.9531106 -5.71947664 0 0 Z " fill="#0C597C" transform="translate(1355,124)"/>
<path d="M0 0 C2.05664541 1.55876552 2.89462224 2.44272714 3.37854004 5.00184631 C3.38059448 5.7644426 3.38264893 6.52703888 3.38476562 7.31274414 C3.39487671 8.18117447 3.40498779 9.0496048 3.41540527 9.9443512 C3.41238403 10.88181686 3.40936279 11.81928253 3.40625 12.78515625 C3.41708618 13.75601669 3.42792236 14.72687714 3.43908691 15.72715759 C3.47340079 18.83900535 3.48893806 21.9504879 3.5 25.0625 C3.51465786 29.13706566 3.54858624 33.21082693 3.59375 37.28515625 C3.59072876 38.2084523 3.58770752 39.13174835 3.58459473 40.08302307 C3.65880004 46.61837513 4.05735401 54.37551733 8.34558105 59.65736389 C13.11477777 63.84411451 17.62586454 65.44053421 23.94921875 65.25 C29.98071509 64.51473187 34.2378886 61.62202258 38 57 C40.46354131 51.50457313 40.27941621 46.17744766 40.2734375 40.2734375 C40.29371385 38.16926539 40.31456437 36.06509875 40.3359375 33.9609375 C40.35859303 30.65815586 40.37503423 27.35559035 40.38085938 24.05273438 C40.39035925 20.85507656 40.4240898 17.65838054 40.4609375 14.4609375 C40.45589203 13.47233734 40.45084656 12.48373718 40.44564819 11.46517944 C40.54375384 4.65045007 40.54375384 4.65045007 42.84228516 1.37353516 C45.76969397 -0.4899636 47.59570235 -0.50702305 51 0 C53.80723292 1.9360227 54.3359956 3.75507136 55 7 C55.10720806 9.76903115 55.16398174 12.51206686 55.16796875 15.28125 C55.17296135 16.49524475 55.17296135 16.49524475 55.17805481 17.73376465 C55.18311324 19.44848057 55.18546347 21.16320631 55.18530273 22.87792969 C55.18746905 25.46306324 55.2055798 28.04775554 55.22460938 30.6328125 C55.32304462 58.79651299 55.32304462 58.79651299 45.953125 69.29296875 C38.31373176 76.5240496 30.51357249 79.21027145 20 79 C11.07385918 77.82430626 3.18493801 74.87325018 -2.78125 67.92578125 C-8.84492896 59.40987918 -10.46413541 51.07123038 -10.43359375 40.76171875 C-10.4388356 39.71852982 -10.44407745 38.67534088 -10.44947815 37.60054016 C-10.45586432 35.41135545 -10.45460586 33.22213627 -10.44604492 31.03295898 C-10.43747973 27.67956253 -10.46643343 24.32784037 -10.49804688 20.97460938 C-10.49965772 18.84114634 -10.4990836 16.7076803 -10.49609375 14.57421875 C-10.50732773 13.57315598 -10.51856171 12.5720932 -10.53013611 11.54069519 C-10.46085021 4.65974668 -10.46085021 4.65974668 -8.16040039 1.36645508 C-5.23057288 -0.4866633 -3.40143763 -0.50659709 0 0 Z " fill="#0B587C" transform="translate(895,119)"/>
<path d="M0 0 C4.5242625 3.6749121 7.94511088 7.79748822 9.6015625 13.45703125 C9.6640625 16.76953125 9.6640625 16.76953125 8.6015625 19.45703125 C6.3515625 21.45703125 6.3515625 21.45703125 3.6015625 22.45703125 C0.49639432 22.05893277 -0.91482376 21.05481375 -2.87109375 18.63671875 C-3.89506787 17.21729683 -4.91194071 15.79272671 -5.921875 14.36328125 C-8.62476395 10.87383731 -12.07859704 9.07415132 -16.3984375 8.45703125 C-22.76025554 7.92687975 -27.08907525 8.81126917 -32.3984375 12.45703125 C-39.06811293 19.47774223 -39.45070722 27.16211138 -39.3984375 36.45703125 C-38.9281112 43.45966726 -38.41318524 50.17121606 -33.3984375 55.45703125 C-28.1951225 59.57632229 -23.84851417 60.09881522 -17.26171875 59.828125 C-13.15149599 59.29542219 -10.42367083 58.31711536 -7.3984375 55.45703125 C-6.20594207 53.89305868 -5.04062609 52.30811238 -3.8984375 50.70703125 C-0.86339443 46.55777192 -0.86339443 46.55777192 3.3515625 45.64453125 C6.6015625 46.45703125 6.6015625 46.45703125 8.6015625 48.01953125 C10.09929646 51.67025777 9.67732241 53.66023157 8.6015625 57.45703125 C4.63993699 64.74585826 -1.60593326 69.5360688 -9.234375 72.59375 C-18.52887721 75.12965739 -28.10149169 74.20864033 -36.7421875 70.0625 C-44.49965387 65.37379606 -49.19888915 58.87472712 -52.3984375 50.45703125 C-55.15597714 38.60830576 -55.64212056 22.15493057 -49.3984375 11.45703125 C-48.97433594 10.72742188 -48.55023437 9.9978125 -48.11328125 9.24609375 C-43.05862201 1.6711448 -35.66098687 -2.82257854 -26.92578125 -5.0703125 C-17.43130976 -6.84594009 -8.20573757 -5.27893541 0 0 Z " fill="#0C597C" transform="translate(1110.3984375,242.54296875)"/>
<path d="M0 0 C5.1831346 3.47881568 8.4565354 7.30263929 11 13 C11.592881 16.7796164 11.49944749 18.25082876 9.375 21.4375 C7 23 7 23 4.1875 23.3125 C-0.08241597 21.55429931 -1.62111123 18.82158233 -4.3046875 15.16796875 C-6.67889144 12.13183238 -8.2593528 11.03906867 -12 10 C-18.87006338 9.21767603 -25.60750107 8.81433102 -31.2746582 13.28955078 C-35.65837479 17.63542858 -37.21015736 23.41508983 -37.49609375 29.4453125 C-37.49740311 31.33864196 -37.47763682 33.23209557 -37.4375 35.125 C-37.44813477 36.55005859 -37.44813477 36.55005859 -37.45898438 38.00390625 C-37.3949916 45.10218133 -36.04000044 49.67555484 -32.3125 55.75 C-28.29658335 59.65737837 -23.92840898 60.79700958 -18.4375 61.375 C-11.65972692 60.63560657 -7.45835688 58.04498279 -3 53 C-2.61328125 52.44183594 -2.2265625 51.88367187 -1.828125 51.30859375 C-0.625 49.625 -0.625 49.625 2 47 C5.6875 46.9375 5.6875 46.9375 9 48 C11.20088836 51.30133254 11.34996802 52.88741552 10.7109375 56.75 C8.8760587 62.55708895 5.13232058 66.65356772 0.04296875 69.8671875 C-9.66685028 74.87175514 -17.73929965 76.3152695 -28.375 73.5625 C-36.59118014 70.8714863 -43.0443177 65.70877953 -47.5 58.25 C-47.995 57.1775 -48.49 56.105 -49 55 C-49.391875 54.154375 -49.78375 53.30875 -50.1875 52.4375 C-53.85959567 41.42121299 -53.71053004 25.055756 -48.8125 14.421875 C-44.23186789 6.10703192 -38.01458341 -0.11517166 -28.96875 -3.33984375 C-19.25213808 -5.5005114 -8.68555988 -5.18564851 0 0 Z " fill="#0C597C" transform="translate(1061,4)"/>
<path d="M0 0 C3.06639275 3.26063079 4.74107752 6.32838112 6.18237305 10.53710938 C6.55923752 11.62173462 6.93610199 12.70635986 7.3243866 13.82385254 C7.71620621 14.9854187 8.10802582 16.14698486 8.51171875 17.34375 C8.92541214 18.54559937 9.33910553 19.74744873 9.76533508 20.98571777 C10.63652258 23.52267934 11.50384912 26.06055956 12.36450195 28.60107422 C13.46487731 31.84894318 14.57686132 35.09267673 15.69324017 38.33507538 C16.76189844 41.44071025 17.82439062 44.5484451 18.88671875 47.65625 C19.28461105 48.81781616 19.68250336 49.97938232 20.092453 51.17614746 C20.64356499 52.80308533 20.64356499 52.80308533 21.20581055 54.46289062 C21.52905807 55.41377563 21.8523056 56.36466064 22.18534851 57.34436035 C22.9645349 59.88438918 23.52945911 62.3869329 24 65 C26.8554462 63.5722769 26.89601418 61.96074365 27.90771484 58.96459961 C28.2750473 57.88935532 28.64237976 56.81411102 29.02084351 55.70628357 C29.60994003 53.94708336 29.60994003 53.94708336 30.2109375 52.15234375 C30.8250499 50.35175255 30.8250499 50.35175255 31.4515686 48.51478577 C32.7663946 44.65803063 34.0716091 40.79812825 35.375 36.9375 C36.67133417 33.10190633 37.97091946 29.26748217 39.27700806 25.43519592 C40.09063947 23.04746074 40.89897049 20.65791098 41.70126343 18.26634216 C43.74482741 12.26473279 45.76569468 6.47046379 49 1 C52.5 -0.25 52.5 -0.25 56 0 C58.5 1.4375 58.5 1.4375 60 4 C59.70251572 11.29574929 57.19753416 17.72586028 54.703125 24.53125 C54.05715363 26.31698425 54.05715363 26.31698425 53.39813232 28.13879395 C52.48765529 30.64835308 51.57386497 33.15638763 50.65429688 35.66259766 C49.48462877 38.85211211 48.33093817 42.04713203 47.18187332 45.24411774 C46.07287414 48.32224517 44.94981966 51.39523072 43.828125 54.46875 C43.21532684 56.17375671 43.21532684 56.17375671 42.59014893 57.91320801 C37.35155926 72.10135415 37.35155926 72.10135415 31.6875 77 C28.04918362 78.35379214 24.79481802 78.64862312 21 78 C12.6842019 74.16193934 10.49276725 64.95859439 7.49749756 56.91320801 C6.87225189 55.20820129 6.87225189 55.20820129 6.234375 53.46875 C5.79611389 52.2782605 5.35785278 51.087771 4.90631104 49.86120605 C3.98599472 47.35419554 3.06803591 44.84644871 2.15332031 42.33740234 C0.98629559 39.13898446 -0.19698616 35.94684367 -1.38422012 32.75588226 C-2.52274413 29.68517066 -3.64293596 26.60777921 -4.765625 23.53125 C-5.19055237 22.39457886 -5.61547974 21.25790771 -6.05328369 20.08679199 C-8.19599151 14.14414405 -9.63426632 9.32786984 -9 3 C-6.90151322 -0.73064316 -3.99384847 -0.65205689 0 0 Z " fill="#0B587C" transform="translate(1091,119)"/>
<path d="M0 0 C1.33809219 0.00349709 1.33809219 0.00349709 2.70321655 0.00706482 C4.58088808 0.01677277 6.45853161 0.03849163 8.3359375 0.0715332 C11.2087745 0.12105646 14.07989905 0.13302365 16.953125 0.13867188 C18.78126821 0.15275484 20.60939658 0.16895816 22.4375 0.1875 C23.29485748 0.1928627 24.15221497 0.1982254 25.03555298 0.20375061 C26.23732681 0.2277317 26.23732681 0.2277317 27.46337891 0.25219727 C28.51545029 0.26815697 28.51545029 0.26815697 29.58877563 0.28443909 C31.99052451 0.61413227 33.56600768 1.21458661 35.5859375 2.55859375 C36.4609375 5.99609375 36.4609375 5.99609375 36.5859375 9.55859375 C34.5859375 12.55859375 34.5859375 12.55859375 31.5859375 13.55859375 C28.99963526 13.64341148 26.44115694 13.67457604 23.85546875 13.65625 C23.10504807 13.65483505 22.35462738 13.6534201 21.58146667 13.65196228 C19.1870829 13.64636935 16.79279297 13.63381819 14.3984375 13.62109375 C12.77408989 13.61607783 11.14974082 13.61151509 9.52539062 13.60742188 C5.54550775 13.59725355 1.56582757 13.57767687 -2.4140625 13.55859375 C-2.4140625 20.81859375 -2.4140625 28.07859375 -2.4140625 35.55859375 C-0.07828125 35.50058594 2.2575 35.44257813 4.6640625 35.3828125 C6.93111782 35.34379763 9.19813548 35.31345019 11.46533203 35.28393555 C13.03874501 35.25881927 14.61204162 35.22471903 16.18505859 35.18139648 C18.44918522 35.12060976 20.71176772 35.09235793 22.9765625 35.0703125 C24.02834686 35.03160286 24.02834686 35.03160286 25.10137939 34.99211121 C28.83980576 34.9899733 30.31872776 35.31166563 33.10449219 37.88598633 C34.5859375 40.55859375 34.5859375 40.55859375 33.8984375 43.80859375 C32.5859375 46.55859375 32.5859375 46.55859375 31.5859375 47.55859375 C29.06499674 47.64707118 26.57162857 47.67386676 24.05078125 47.65625 C22.92090538 47.65412758 22.92090538 47.65412758 21.76820374 47.65196228 C19.3532419 47.64634751 16.93837149 47.63379258 14.5234375 47.62109375 C12.88997529 47.61608065 11.25651164 47.61151741 9.62304688 47.60742188 C5.61064165 47.59637329 1.59830509 47.57909881 -2.4140625 47.55859375 C-2.39311523 48.35555664 -2.37216797 49.15251953 -2.35058594 49.97363281 C-2.26742928 53.58515809 -2.21540216 57.19648199 -2.1640625 60.80859375 C-2.11378906 62.68998047 -2.11378906 62.68998047 -2.0625 64.609375 C-2.04960938 65.81464844 -2.03671875 67.01992188 -2.0234375 68.26171875 C-2.00249023 69.37192383 -1.98154297 70.48212891 -1.95996094 71.62597656 C-2.4140625 74.55859375 -2.4140625 74.55859375 -4.21191406 76.95605469 C-6.4140625 78.55859375 -6.4140625 78.55859375 -10.0390625 78.49609375 C-13.4140625 77.55859375 -13.4140625 77.55859375 -15.4140625 74.55859375 C-15.69494629 71.61196899 -15.69494629 71.61196899 -15.73632812 67.96337891 C-15.74625793 67.29797592 -15.75618774 66.63257294 -15.76641846 65.94700623 C-15.79561247 63.74718073 -15.80925626 61.54764358 -15.8203125 59.34765625 C-15.83181912 57.81692498 -15.84333454 56.28619378 -15.8548584 54.75546265 C-15.87586404 51.54594583 -15.88755875 48.336529 -15.89453125 45.12695312 C-15.90550155 41.01847588 -15.95355867 36.9113242 -16.01047516 32.80326271 C-16.04776317 29.64104375 -16.05814077 26.47914309 -16.061203 23.31672287 C-16.06724904 21.80243045 -16.08328341 20.28814318 -16.10957336 18.77406693 C-16.29496294 7.27695048 -16.29496294 7.27695048 -14.36489868 3.51200867 C-10.41647255 -0.38666398 -5.15987128 -0.1181099 0 0 Z " fill="#0A587B" transform="translate(982.4140625,237.44140625)"/>
<path d="M0 0 C1.94921875 1.4765625 1.94921875 1.4765625 3.6875 3.625 C4.35910156 4.44097656 5.03070312 5.25695312 5.72265625 6.09765625 C6.47417969 7.05542969 7.22570313 8.01320313 8 9 C8.91482976 10.14495878 9.83022246 11.28946793 10.74609375 12.43359375 C15.60618235 18.54011324 20.35749179 24.72634026 25 31 C28.43431563 27.64470402 31.61915107 24.19216202 34.6875 20.5 C35.1103125 19.99170654 35.533125 19.48341309 35.96875 18.9597168 C39.70032589 14.43903369 43.27166989 9.80009085 46.77612305 5.1015625 C49.78833688 1.10583156 49.78833688 1.10583156 52 0 C54.9375 -0.3125 54.9375 -0.3125 58 0 C59.9375 1.625 59.9375 1.625 61 4 C60.73582651 9.31366112 58.55976768 12.42906918 55.25 16.375 C54.76990479 16.96643799 54.28980957 17.55787598 53.79516602 18.16723633 C52.75863474 19.4416274 51.71684774 20.71175799 50.67041016 21.97802734 C48.32207262 24.82060722 46.0001606 27.6843934 43.67675781 30.54736328 C42.53441842 31.95299876 41.38931795 33.35639572 40.24121094 34.75732422 C39.71688477 35.39814941 39.19255859 36.03897461 38.65234375 36.69921875 C38.18820068 37.26471436 37.72405762 37.83020996 37.24584961 38.4128418 C34.21999244 42.2676522 33.73663177 44.40195755 33.65625 49.2421875 C33.61177734 51.08876953 33.61177734 51.08876953 33.56640625 52.97265625 C33.54449219 54.26042969 33.52257813 55.54820312 33.5 56.875 C33.45652888 59.41422455 33.40476762 61.95332399 33.34375 64.4921875 C33.32505859 65.61995605 33.30636719 66.74772461 33.28710938 67.90966797 C32.99616574 71.04127045 32.45999228 73.22246861 31 76 C28 78 28 78 24.4375 77.875 C21 77 21 77 19.78686523 75.33544922 C18.77979576 72.34642452 18.86256226 69.90985631 18.97265625 66.7578125 C19.76656573 49.3071963 19.76656573 49.3071963 11.79101562 34.64672852 C10.76194748 33.6280102 9.71835905 32.62377549 8.66162109 31.63378906 C5.50471852 28.52976437 2.82765678 25.01263644 0.0625 21.5625 C-0.48051758 20.91112061 -1.02353516 20.25974121 -1.58300781 19.58862305 C-4.88986929 15.59086005 -7.71697892 11.67314686 -10 7 C-9.375 3.625 -9.375 3.625 -8 1 C-5.17492502 -0.41253749 -3.12660699 -0.29103009 0 0 Z " fill="#0E5A7D" transform="translate(1481,119)"/>
<path d="M0 0 C1.18202499 0.00091644 2.36404999 0.00183289 3.58189392 0.0027771 C6.0775047 0.00881238 8.57310827 0.024556 11.06860352 0.04931641 C14.89170976 0.08583592 18.71384686 0.09033558 22.53710938 0.08984375 C24.96224797 0.09967457 27.38738 0.11133141 29.8125 0.125 C30.95735367 0.12722565 32.10220734 0.12945129 33.28175354 0.13174438 C34.34643356 0.14450409 35.41111359 0.15726379 36.50805664 0.17041016 C37.44339737 0.17803375 38.3787381 0.18565735 39.34242249 0.19351196 C41.98215456 0.47617624 43.61223518 1.03512177 45.83984375 2.4609375 C47.25426249 5.28977497 47.15884707 7.33470495 46.83984375 10.4609375 C44.73912303 12.51871896 43.3846798 13.38303198 40.45800781 13.80151367 C39.59916992 13.78580322 38.74033203 13.77009277 37.85546875 13.75390625 C36.92089844 13.74423828 35.98632812 13.73457031 35.0234375 13.72460938 C34.05535156 13.69947266 33.08726563 13.67433594 32.08984375 13.6484375 C31.10628906 13.63490234 30.12273437 13.62136719 29.109375 13.60742188 C26.6856396 13.57212476 24.2630223 13.52281804 21.83984375 13.4609375 C21.84428497 14.20373962 21.8487262 14.94654175 21.853302 15.71185303 C21.89339271 22.71547928 21.92383526 29.71906572 21.94346809 36.72277451 C21.95390088 40.32337086 21.96805076 43.92387232 21.99072266 47.52441406 C22.0124692 50.99978823 22.02441618 54.47507116 22.02959824 57.95050812 C22.03508657 59.92030346 22.05069666 61.89006215 22.06643677 63.85980225 C22.06666336 65.66121674 22.06666336 65.66121674 22.06689453 67.49902344 C22.07133575 68.55603455 22.07577698 69.61304565 22.08035278 70.7020874 C21.83645669 73.49979009 21.3735936 75.12763537 19.83984375 77.4609375 C17.04114348 78.86028763 14.93485583 78.71359155 11.83984375 78.4609375 C9.03243254 76.52479184 8.46635162 74.71995329 7.83984375 71.4609375 C7.75358133 69.5363913 7.72213037 67.60909111 7.72631836 65.68261719 C7.72639389 64.5217157 7.72646942 63.36081421 7.72654724 62.16473389 C7.73170853 60.91669983 7.73686981 59.66866577 7.7421875 58.3828125 C7.74360245 57.10110168 7.7450174 55.81939087 7.74647522 54.49884033 C7.75028474 51.0991011 7.76010161 47.6994049 7.7711792 44.29968262 C7.78142701 40.8273985 7.78598005 37.3551074 7.79101562 33.8828125 C7.80172534 27.07550321 7.81878291 20.26822242 7.83984375 13.4609375 C7.22463867 13.48188477 6.60943359 13.50283203 5.97558594 13.52441406 C3.18050566 13.60770767 0.3856866 13.65963763 -2.41015625 13.7109375 C-3.37824219 13.74445313 -4.34632812 13.77796875 -5.34375 13.8125 C-12.52122875 13.91149971 -12.52122875 13.91149971 -15.796875 11.6015625 C-17.16015625 9.4609375 -17.16015625 9.4609375 -17.72265625 6.9609375 C-17.16015625 4.4609375 -17.16015625 4.4609375 -15.38500977 2.33349609 C-10.41517298 -0.55231268 -5.64602746 -0.07099856 0 0 Z " fill="#155F81" transform="translate(1420.16015625,118.5390625)"/>
<path d="M0 0 C1.03241821 -0.00397797 2.06483643 -0.00795593 3.12854004 -0.01205444 C4.88551208 -0.03569565 4.88551208 -0.03569565 6.67797852 -0.05981445 C8.57646545 -0.04463272 8.57646545 -0.04463272 10.51330566 -0.02914429 C11.81151245 -0.03392792 13.10971924 -0.03871155 14.44726562 -0.04364014 C17.19467921 -0.05101023 19.94127964 -0.0403039 22.68859863 -0.01693726 C26.20994531 0.01155343 29.72938699 -0.00485022 33.25066376 -0.03479958 C36.60919709 -0.05721506 39.96721818 -0.04152001 43.32580566 -0.02914429 C44.59146362 -0.03926544 45.85712158 -0.0493866 47.16113281 -0.05981445 C48.91810486 -0.03617325 48.91810486 -0.03617325 50.71057129 -0.01205444 C52.25919861 -0.00608749 52.25919861 -0.00608749 53.83911133 0 C56.41955566 0.63491821 56.41955566 0.63491821 58.31933594 2.972229 C59.41955566 5.63491821 59.41955566 5.63491821 58.73205566 8.88491821 C57.41955566 11.63491821 57.41955566 11.63491821 55.41955566 12.63491821 C53.75209507 12.71917915 52.08130379 12.74216964 50.41174316 12.73257446 C49.42561035 12.72935181 48.43947754 12.72612915 47.42346191 12.72280884 C46.39092285 12.71442993 45.35838379 12.70605103 44.29455566 12.69741821 C42.73414551 12.69065063 42.73414551 12.69065063 41.14221191 12.68374634 C38.56793605 12.67193773 35.9937742 12.65546896 33.41955566 12.63491821 C33.4262175 13.4049971 33.43287933 14.17507599 33.43974304 14.9684906 C33.49983195 22.22259604 33.54551855 29.47658096 33.57499218 36.73087025 C33.59065425 40.46046876 33.61190195 44.18986179 33.64587402 47.91934204 C33.67844885 51.51791595 33.6964046 55.1162921 33.70418739 58.71500206 C33.70973434 60.08855999 33.72056618 61.46210699 33.73674583 62.83558083 C33.75849242 64.75792528 33.75978083 66.68046836 33.76013184 68.60293579 C33.76679367 69.6976973 33.77345551 70.7924588 33.78031921 71.9203949 C33.41955566 74.63491821 33.41955566 74.63491821 32.11701965 76.48457336 C29.23000034 78.44106129 26.77665394 78.0545555 23.41955566 77.63491821 C21.12351961 75.4044537 20.47004973 74.02637269 20.05879211 70.83810425 C20.06545395 69.76332825 20.07211578 68.68855225 20.07897949 67.58120728 C20.07920609 66.36024353 20.07943268 65.13927979 20.07966614 63.88131714 C20.10289192 61.91083405 20.10289192 61.91083405 20.12658691 59.90054321 C20.13218503 58.53862984 20.13645411 57.1767104 20.13945007 55.81478882 C20.15088205 52.23734742 20.18033449 48.6602738 20.21356201 45.08297729 C20.24429875 41.42976862 20.25796307 37.77650029 20.27307129 34.12319946 C20.30520625 26.96027173 20.35638208 19.79764658 20.41955566 12.63491821 C19.44345337 12.65848389 19.44345337 12.65848389 18.44763184 12.68252563 C15.50086142 12.7448647 12.55422969 12.78390505 9.60705566 12.82241821 C8.07081543 12.86012329 8.07081543 12.86012329 6.50354004 12.89859009 C5.0291748 12.91309204 5.0291748 12.91309204 3.52502441 12.92788696 C2.61905518 12.94359741 1.71308594 12.95930786 0.77966309 12.97549438 C-2.03978388 12.56863305 -2.86352492 11.85663432 -4.58044434 9.63491821 C-5.45544434 7.75991821 -5.45544434 7.75991821 -5.58044434 5.63491821 C-3.48845746 0.8583348 -3.48845746 0.8583348 0 0 Z " fill="#065579" transform="translate(1238.5804443359375,0.365081787109375)"/>
<path d="M0 0 C1.15136948 -0.00953201 2.30273895 -0.01906403 3.48899841 -0.02888489 C4.73794388 -0.02797348 5.98688934 -0.02706207 7.27368164 -0.02612305 C8.55110733 -0.03040817 9.82853302 -0.0346933 11.14466858 -0.03910828 C13.85081667 -0.04486092 16.55658451 -0.04627621 19.26269531 -0.04101562 C22.73093282 -0.03522219 26.19863608 -0.05214587 29.66678524 -0.0753603 C32.9732469 -0.09363422 36.27967854 -0.08991242 39.58618164 -0.08862305 C40.83310287 -0.09783279 42.08002411 -0.10704254 43.36473083 -0.11653137 C44.51925247 -0.11030258 45.67377411 -0.10407379 46.86328125 -0.09765625 C48.38978554 -0.09860039 48.38978554 -0.09860039 49.9471283 -0.0995636 C52.49633789 0.2746582 52.49633789 0.2746582 54.32496643 1.61042786 C56.14930054 4.20235731 55.88058312 6.20069636 55.49633789 9.2746582 C54.29199219 10.94384766 54.29199219 10.94384766 52.49633789 12.2746582 C50.13623047 12.61523438 50.13623047 12.61523438 47.39086914 12.56762695 C46.40795898 12.55795898 45.42504883 12.54829102 44.41235352 12.53833008 C43.38819336 12.51319336 42.3640332 12.48805664 41.30883789 12.4621582 C39.75519531 12.44185547 39.75519531 12.44185547 38.17016602 12.42114258 C35.6117009 12.38577209 33.05428009 12.33641365 30.49633789 12.2746582 C30.50299973 13.0299884 30.50966156 13.7853186 30.51652527 14.5635376 C30.57665845 21.68488579 30.62232331 28.80611073 30.65177441 35.92764664 C30.6674246 39.58883757 30.68865061 43.24981856 30.72265625 46.91088867 C30.75527346 50.44462902 30.77319577 53.97816754 30.78096962 57.51204681 C30.7892032 59.51511802 30.81261896 61.51810813 30.83622742 63.52105713 C30.83645401 64.74202087 30.8366806 65.96298462 30.83691406 67.22094727 C30.8435759 68.29572327 30.85023773 69.37049927 30.85710144 70.47784424 C30.44584383 73.66611268 29.79237395 75.04419369 27.49633789 77.2746582 C21.5864301 78.01339668 21.5864301 78.01339668 18.7988739 76.12431335 C16.92535915 73.46384471 17.13607633 71.47764073 17.15576172 68.24267578 C17.15598831 67.00161575 17.1562149 65.76055573 17.15644836 64.48188782 C17.17176821 63.12765137 17.18741619 61.77341859 17.20336914 60.41918945 C17.20896538 59.0334265 17.21323535 57.64765761 17.2162323 56.2618866 C17.22767906 52.61703057 17.25714431 48.97253398 17.29034424 45.32781982 C17.32104904 41.60767479 17.33473848 37.88747159 17.34985352 34.16723633 C17.38201458 26.86954654 17.43320838 19.57215276 17.49633789 12.2746582 C16.85083984 12.29560547 16.2053418 12.31655273 15.5402832 12.33813477 C12.60912721 12.42140025 9.67822012 12.47335026 6.74633789 12.5246582 C5.73055664 12.55817383 4.71477539 12.59168945 3.66821289 12.6262207 C-3.83309734 12.72492215 -3.83309734 12.72492215 -7.21459961 10.4543457 C-8.50366211 8.2746582 -8.50366211 8.2746582 -8.37866211 5.1496582 C-6.83518696 0.07823987 -4.9140572 0.02226528 0 0 Z " fill="#065579" transform="translate(919.503662109375,0.725341796875)"/>
<path d="M0 0 C3.5 0.4375 3.5 0.4375 5.375 1.75 C7.65537747 5.1705662 7.62201885 8.21066072 7.61352539 12.1940918 C7.61344986 13.37508957 7.61337433 14.55608734 7.61329651 15.77287292 C7.60813522 17.04794205 7.60297394 18.32301117 7.59765625 19.63671875 C7.5962413 20.94204056 7.59482635 22.24736237 7.59336853 23.59223938 C7.5895538 27.05939656 7.57973244 30.52651174 7.56866455 33.99365234 C7.55842798 37.53287182 7.5538661 41.0720981 7.54882812 44.61132812 C7.53810923 51.55340265 7.52104534 58.49544931 7.5 65.4375 C9.06681519 65.4060791 9.06681519 65.4060791 10.6652832 65.37402344 C14.53965554 65.30163851 18.4139681 65.25570638 22.28881836 65.21777344 C23.96600392 65.19765435 25.64311931 65.17035549 27.32006836 65.13574219 C29.730482 65.08723431 32.13996872 65.06453536 34.55078125 65.046875 C35.30087967 65.02622986 36.05097809 65.00558472 36.82380676 64.98431396 C41.99990286 64.98208153 41.99990286 64.98208153 44.50854492 67.26660156 C45.90620014 70.32691928 45.40018155 72.2522422 44.5 75.4375 C42.1051857 77.8323143 41.56331278 77.69548692 38.29736328 77.72802734 C37.42951202 77.74078705 36.56166077 77.75354675 35.66751099 77.76669312 C34.72793549 77.76891876 33.78835999 77.77114441 32.8203125 77.7734375 C31.85600311 77.7800943 30.89169373 77.7867511 29.89816284 77.79360962 C27.85546785 77.80374722 25.81273966 77.8084263 23.77001953 77.80810547 C20.6443006 77.81247303 17.51999962 77.84876558 14.39453125 77.88671875 C12.41146317 77.89258777 10.42838837 77.89655659 8.4453125 77.8984375 C7.50978546 77.91280853 6.57425842 77.92717957 5.61038208 77.94198608 C-0.88331704 77.89627636 -0.88331704 77.89627636 -4.05908203 75.53369141 C-6.5919911 71.84891384 -6.63509714 69.59909879 -6.66113281 65.12353516 C-6.66609772 64.47617905 -6.67106262 63.82882294 -6.67617798 63.16184998 C-6.69080259 61.0167434 -6.69760211 58.87171078 -6.703125 56.7265625 C-6.70887629 55.2368469 -6.71463403 53.74713132 -6.72039795 52.25741577 C-6.73090884 49.13189346 -6.73675089 46.00639688 -6.74023438 42.88085938 C-6.74571878 38.87693961 -6.76974494 34.87335998 -6.79820633 30.86954689 C-6.81683548 27.7914633 -6.82203845 24.71346159 -6.82357025 21.63532639 C-6.8265968 20.15933752 -6.83462545 18.6833501 -6.84775543 17.20741653 C-6.8648222 15.14143294 -6.86293476 13.07627952 -6.85644531 11.01025391 C-6.86009094 9.83492096 -6.86373657 8.65958801 -6.86749268 7.44863892 C-6.26265918 2.49279139 -5.00224755 0.62528094 0 0 Z " fill="#105B7E" transform="translate(1222.5,237.5625)"/>
<path d="M0 0 C3.375 0.9375 3.375 0.9375 5.375 3.9375 C5.63569641 6.97351074 5.63569641 6.97351074 5.6496582 10.74804688 C5.65476913 11.43616959 5.65988007 12.1242923 5.66514587 12.83326721 C5.67904525 15.10768328 5.6780851 17.38179651 5.67578125 19.65625 C5.6796676 21.2366141 5.68400214 22.81697717 5.68876648 24.39733887 C5.69622912 27.70942573 5.69593683 31.02140599 5.69067383 34.33349609 C5.68487475 38.58076354 5.70182024 42.82759554 5.7250185 47.07479095 C5.73973877 50.33814043 5.74062997 53.60138456 5.73750877 56.86476135 C5.73802271 58.43088138 5.74327393 59.9970072 5.75332069 61.56309509 C5.76563714 63.75133722 5.75892356 65.93872501 5.74731445 68.12695312 C5.74794388 69.37255005 5.7485733 70.61814697 5.7492218 71.90148926 C5.375 74.9375 5.375 74.9375 4.07048035 76.83972168 C1.20269115 78.69653873 -1.32527919 78.29104152 -4.625 77.9375 C-6.3184967 76.83872986 -6.3184967 76.83872986 -7.625 74.9375 C-8.01268005 71.90821838 -8.01268005 71.90821838 -8.02905273 68.14282227 C-8.03591599 67.45630585 -8.04277924 66.76978943 -8.04985046 66.06246948 C-8.06815411 63.79273809 -8.06427606 61.52369562 -8.05859375 59.25390625 C-8.06315406 57.67593663 -8.06845919 56.097969 -8.07447815 54.52000427 C-8.08341636 51.21206598 -8.08097842 47.90436902 -8.07104492 44.59643555 C-8.05955751 40.35808953 -8.07975879 36.12057693 -8.10896206 31.88234043 C-8.12731288 28.62321178 -8.12703384 25.36428324 -8.12132454 22.10511589 C-8.12117117 20.54261036 -8.12722865 18.9800914 -8.13961601 17.41763496 C-8.15450313 15.23174996 -8.14386804 13.0474091 -8.12670898 10.86157227 C-8.12654282 9.61819595 -8.12637665 8.37481964 -8.12620544 7.09376526 C-7.625 3.9375 -7.625 3.9375 -5.82020569 1.50083923 C-3.625 -0.0625 -3.625 -0.0625 0 0 Z " fill="#035377" transform="translate(893.625,0.0625)"/>
<path d="M0 0 C2.98446066 2.21349889 3.90313518 3.40661279 4.50793457 7.11157227 C4.51111694 8.33416748 4.51429932 9.5567627 4.51757812 10.81640625 C4.52809204 11.83176956 4.52809204 11.83176956 4.53881836 12.86764526 C4.55638824 15.09968387 4.54478073 17.33044906 4.53125 19.5625 C4.53394524 21.11662031 4.53782793 22.67073897 4.54284668 24.22485352 C4.5487403 27.47981849 4.54018366 30.73434398 4.52148438 33.98925781 C4.49869428 38.15923544 4.51181817 42.32818331 4.53577423 46.49812317 C4.55023624 49.70666243 4.54562451 52.91495799 4.53526306 56.12350464 C4.53259686 57.66087974 4.53586184 59.19827705 4.54518127 60.73562622 C4.55535429 62.88554385 4.53983888 65.03379975 4.51757812 67.18359375 C4.51439575 68.40618896 4.51121338 69.62878418 4.50793457 70.88842773 C4 74 4 74 2.19421387 76.43383789 C0 78 0 78 -3.625 77.875 C-7 77 -7 77 -9 75 C-9.26069641 72.04627991 -9.26069641 72.04627991 -9.2746582 68.21118164 C-9.27976913 67.51345139 -9.28488007 66.81572113 -9.29014587 66.09684753 C-9.30407492 63.78453046 -9.30308263 61.47251035 -9.30078125 59.16015625 C-9.30466648 57.55594267 -9.30900079 55.95173012 -9.31376648 54.34751892 C-9.32123589 50.98237781 -9.32093232 47.61734159 -9.31567383 44.25219727 C-9.30987934 39.93652234 -9.32680591 35.62127659 -9.3500185 31.30567265 C-9.36474004 27.99170922 -9.3656297 24.67784951 -9.36250877 21.36385918 C-9.36302282 19.7726195 -9.36827621 18.18137415 -9.37832069 16.59016609 C-9.39063713 14.36589692 -9.38392305 12.14246829 -9.37231445 9.91821289 C-9.37294388 8.65183487 -9.3735733 7.38545685 -9.3742218 6.08070374 C-9 3 -9 3 -7.6603241 1.09495544 C-5.00988863 -0.65296157 -3.08669275 -0.44095611 0 0 Z " fill="#075579" transform="translate(1387,119)"/>
<path d="M0 0 C2.98446066 2.21349889 3.90313518 3.40661279 4.50793457 7.11157227 C4.51111694 8.33416748 4.51429932 9.5567627 4.51757812 10.81640625 C4.52809204 11.83176956 4.52809204 11.83176956 4.53881836 12.86764526 C4.55638824 15.09968387 4.54478073 17.33044906 4.53125 19.5625 C4.53394524 21.11662031 4.53782793 22.67073897 4.54284668 24.22485352 C4.5487403 27.47981849 4.54018366 30.73434398 4.52148438 33.98925781 C4.49869428 38.15923544 4.51181817 42.32818331 4.53577423 46.49812317 C4.55023624 49.70666243 4.54562451 52.91495799 4.53526306 56.12350464 C4.53259686 57.66087974 4.53586184 59.19827705 4.54518127 60.73562622 C4.55535429 62.88554385 4.53983888 65.03379975 4.51757812 67.18359375 C4.51439575 68.40618896 4.51121338 69.62878418 4.50793457 70.88842773 C4 74 4 74 2.19421387 76.43383789 C0 78 0 78 -3.625 77.875 C-7 77 -7 77 -9 75 C-9.26069641 72.04627991 -9.26069641 72.04627991 -9.2746582 68.21118164 C-9.27976913 67.51345139 -9.28488007 66.81572113 -9.29014587 66.09684753 C-9.30407492 63.78453046 -9.30308263 61.47251035 -9.30078125 59.16015625 C-9.30466648 57.55594267 -9.30900079 55.95173012 -9.31376648 54.34751892 C-9.32123589 50.98237781 -9.32093232 47.61734159 -9.31567383 44.25219727 C-9.30987934 39.93652234 -9.32680591 35.62127659 -9.3500185 31.30567265 C-9.36474004 27.99170922 -9.3656297 24.67784951 -9.36250877 21.36385918 C-9.36302282 19.7726195 -9.36827621 18.18137415 -9.37832069 16.59016609 C-9.39063713 14.36589692 -9.38392305 12.14246829 -9.37231445 9.91821289 C-9.37294388 8.65183487 -9.3735733 7.38545685 -9.3742218 6.08070374 C-9 3 -9 3 -7.6603241 1.09495544 C-5.00988863 -0.65296157 -3.08669275 -0.44095611 0 0 Z " fill="#075579" transform="translate(1064,119)"/>
</svg>
