<svg width="40" height="56" viewBox="0 0 40 56" fill="none" xmlns="http://www.w3.org/2000/svg">
<path d="M39 8H1V6H39V8Z" fill="#1E1E1E"/>
<path d="M39 16H20H1V14H39V16Z" fill="#1E1E1E"/>
<path d="M1 24H39V22H1V24Z" fill="#1E1E1E"/>
<path d="M3.89062 38.625L5.29688 43.4922L6.85156 38.625H9.1875V50H7.42188V46.1406L7.53125 41.0625L5.78125 46.4922H4.80469L3.21875 41.25L3.32031 46.1406V50H1.5625V38.625H3.89062ZM15.2656 50.1562C14.6406 50.1562 14.0677 50.0521 13.5469 49.8438C13.0312 49.6354 12.5885 49.3464 12.2188 48.9766C11.849 48.612 11.5625 48.1823 11.3594 47.6875C11.1615 47.1875 11.0625 46.6484 11.0625 46.0703V45.75C11.0625 45.0885 11.1667 44.4896 11.375 43.9531C11.5833 43.4167 11.8698 42.9583 12.2344 42.5781C12.599 42.1979 13.0208 41.9062 13.5 41.7031C13.9844 41.4948 14.5 41.3906 15.0469 41.3906C15.6562 41.3906 16.1953 41.4948 16.6641 41.7031C17.1328 41.9062 17.526 42.1901 17.8438 42.5547C18.1615 42.9245 18.401 43.3646 18.5625 43.875C18.724 44.3854 18.8047 44.9427 18.8047 45.5469V46.3516H12.9453V46.3906C13.0026 46.7604 13.0911 47.0703 13.2109 47.3203C13.3307 47.5703 13.4948 47.7943 13.7031 47.9922C13.9115 48.2005 14.1562 48.362 14.4375 48.4766C14.724 48.5911 15.0365 48.6484 15.375 48.6484C15.8385 48.6484 16.2708 48.5599 16.6719 48.3828C17.0729 48.2005 17.4036 47.9427 17.6641 47.6094L18.6641 48.5781C18.3828 48.9844 17.9505 49.349 17.3672 49.6719C16.7891 49.9948 16.0885 50.1562 15.2656 50.1562ZM15.0391 42.9062C14.7734 42.9062 14.526 42.9557 14.2969 43.0547C14.0729 43.1484 13.8724 43.2839 13.6953 43.4609C13.5182 43.6432 13.3698 43.862 13.25 44.1172C13.1302 44.3724 13.0417 44.6615 12.9844 44.9844H16.9609V44.8594C16.9609 44.6146 16.9167 44.3724 16.8281 44.1328C16.7396 43.888 16.6146 43.6745 16.4531 43.4922C16.2969 43.3151 16.099 43.1745 15.8594 43.0703C15.625 42.9609 15.3516 42.9062 15.0391 42.9062ZM20.9297 50V41.5469H22.6172L22.7344 42.75C22.849 42.5885 22.974 42.4401 23.1094 42.3047C23.25 42.1641 23.3984 42.0391 23.5547 41.9297C23.8047 41.7578 24.0781 41.625 24.375 41.5312C24.6719 41.4375 24.9844 41.3906 25.3125 41.3906C25.7448 41.3906 26.1406 41.4531 26.5 41.5781C26.8594 41.7031 27.1667 41.901 27.4219 42.1719C27.6771 42.4427 27.875 42.7891 28.0156 43.2109C28.1562 43.6276 28.2266 44.1328 28.2266 44.7266V50H26.3594V44.7578C26.3594 44.4089 26.3203 44.1172 26.2422 43.8828C26.1641 43.6484 26.0495 43.4609 25.8984 43.3203C25.7474 43.1797 25.5651 43.0807 25.3516 43.0234C25.138 42.9609 24.8932 42.9297 24.6172 42.9297C24.388 42.9297 24.1745 42.9609 23.9766 43.0234C23.7786 43.0807 23.599 43.1641 23.4375 43.2734C23.3125 43.3568 23.1953 43.4583 23.0859 43.5781C22.9766 43.6979 22.8802 43.8281 22.7969 43.9688V50H20.9297ZM36.0781 50L35.9688 48.8203C35.6823 49.2422 35.3333 49.5729 34.9219 49.8125C34.5104 50.0469 34.0495 50.1641 33.5391 50.1641C33.1016 50.1641 32.7005 50.0964 32.3359 49.9609C31.9766 49.8203 31.6667 49.6042 31.4062 49.3125C31.151 49.0208 30.9531 48.6484 30.8125 48.1953C30.6719 47.737 30.6016 47.1901 30.6016 46.5547V41.5469H32.4688V46.5703C32.4688 46.9609 32.4974 47.2891 32.5547 47.5547C32.612 47.8151 32.7031 48.0234 32.8281 48.1797C32.9531 48.3411 33.112 48.4557 33.3047 48.5234C33.4974 48.5911 33.724 48.625 33.9844 48.625C34.2552 48.625 34.4974 48.5964 34.7109 48.5391C34.9245 48.4766 35.112 48.3932 35.2734 48.2891C35.4089 48.1953 35.5286 48.0859 35.6328 47.9609C35.737 47.8307 35.8255 47.6875 35.8984 47.5312V41.5469H37.7734V50H36.0781ZM31.3594 39.2656C31.3594 39.0104 31.4453 38.7943 31.6172 38.6172C31.7943 38.4401 32.0339 38.3516 32.3359 38.3516C32.6328 38.3516 32.8698 38.4401 33.0469 38.6172C33.224 38.7943 33.3125 39.0104 33.3125 39.2656C33.3125 39.526 33.224 39.7448 33.0469 39.9219C32.8698 40.0938 32.6328 40.1797 32.3359 40.1797C32.0391 40.1797 31.8021 40.0938 31.625 39.9219C31.4479 39.7448 31.3594 39.526 31.3594 39.2656ZM34.9453 39.2734C34.9453 39.0234 35.0312 38.8099 35.2031 38.6328C35.3802 38.4505 35.6198 38.3594 35.9219 38.3594C36.224 38.3594 36.4609 38.4505 36.6328 38.6328C36.8099 38.8099 36.8984 39.0234 36.8984 39.2734C36.8984 39.5339 36.8099 39.7526 36.6328 39.9297C36.4557 40.1068 36.2188 40.1953 35.9219 40.1953C35.6198 40.1953 35.3802 40.1068 35.2031 39.9297C35.0312 39.7526 34.9453 39.5339 34.9453 39.2734Z" fill="#1E1E1E"/>
</svg>
