<svg width="50" height="56" viewBox="0 0 50 56" fill="none" xmlns="http://www.w3.org/2000/svg">
<path fill-rule="evenodd" clip-rule="evenodd" d="M31.1923 22.1925C28.8397 24.545 25.5898 26 22 26C14.8203 26 9 20.1797 9 13C9 5.8203 14.8203 0 22 0C29.1797 0 35 5.8203 35 13C35 15.8683 34.0711 18.5196 32.4977 20.6695L42.4143 30.5858L41.0001 32L31.1923 22.1925ZM33 13C33 19.0751 28.0751 24 22 24C15.9249 24 11 19.0751 11 13C11 6.92487 15.9249 2 22 2C28.0751 2 33 6.92487 33 13Z" fill="#1E1E1E"/>
<path d="M7.09375 47.0703C7.09375 46.8047 7.03906 46.5703 6.92969 46.3672C6.82031 46.1641 6.66667 45.9818 6.46875 45.8203C6.26042 45.6693 6.01302 45.5339 5.72656 45.4141C5.44531 45.2891 5.13021 45.1771 4.78125 45.0781C4.24479 44.9271 3.75 44.7422 3.29688 44.5234C2.84896 44.2995 2.46615 44.0495 2.14844 43.7734C1.83073 43.4922 1.58073 43.1745 1.39844 42.8203C1.22135 42.4609 1.13281 42.0573 1.13281 41.6094C1.13281 41.125 1.23698 40.6901 1.44531 40.3047C1.65365 39.9141 1.9349 39.5807 2.28906 39.3047C2.64323 39.0339 3.05469 38.8281 3.52344 38.6875C3.9974 38.5417 4.49479 38.4688 5.01562 38.4688C5.56771 38.4688 6.08073 38.5547 6.55469 38.7266C7.03385 38.8932 7.45052 39.1276 7.80469 39.4297C8.15885 39.737 8.4375 40.1042 8.64062 40.5312C8.84896 40.9531 8.95312 41.4219 8.95312 41.9375H7.09375C7.06771 41.651 7.00521 41.3906 6.90625 41.1562C6.8125 40.9167 6.67969 40.7109 6.50781 40.5391C6.33073 40.3724 6.11458 40.2422 5.85938 40.1484C5.60938 40.0495 5.32031 40 4.99219 40C4.70573 40 4.4401 40.0391 4.19531 40.1172C3.95573 40.1901 3.7474 40.2943 3.57031 40.4297C3.39323 40.5703 3.25521 40.7396 3.15625 40.9375C3.05729 41.1354 3.00781 41.3568 3.00781 41.6016C3.01302 41.862 3.08073 42.0911 3.21094 42.2891C3.34115 42.4818 3.51562 42.651 3.73438 42.7969C3.95833 42.9427 4.21354 43.0703 4.5 43.1797C4.79167 43.2891 5.09635 43.3906 5.41406 43.4844C5.8151 43.599 6.20573 43.7422 6.58594 43.9141C6.97135 44.0807 7.32552 44.2839 7.64844 44.5234C8.04948 44.8255 8.36979 45.1875 8.60938 45.6094C8.85417 46.026 8.97656 46.5078 8.97656 47.0547C8.97656 47.5599 8.86979 48.0052 8.65625 48.3906C8.44792 48.776 8.16667 49.0964 7.8125 49.3516C7.45312 49.6172 7.03646 49.8177 6.5625 49.9531C6.08854 50.0833 5.58854 50.1484 5.0625 50.1484C4.50521 50.1484 3.95573 50.0625 3.41406 49.8906C2.8724 49.7135 2.40104 49.4583 2 49.125C1.63021 48.8125 1.33594 48.4453 1.11719 48.0234C0.903646 47.6016 0.794271 47.1172 0.789062 46.5703H2.66406C2.6901 46.9193 2.76302 47.224 2.88281 47.4844C3.00781 47.7396 3.17708 47.9505 3.39062 48.1172C3.59896 48.2891 3.84375 48.4167 4.125 48.5C4.41146 48.5833 4.72396 48.625 5.0625 48.625C5.34896 48.625 5.61458 48.5911 5.85938 48.5234C6.10938 48.4557 6.32552 48.3542 6.50781 48.2188C6.6849 48.0885 6.82552 47.9271 6.92969 47.7344C7.03906 47.5417 7.09375 47.3203 7.09375 47.0703ZM16.3594 50L16.25 48.8203C15.9635 49.2422 15.6146 49.5729 15.2031 49.8125C14.7917 50.0469 14.3307 50.1641 13.8203 50.1641C13.3828 50.1641 12.9818 50.0964 12.6172 49.9609C12.2578 49.8203 11.9479 49.6042 11.6875 49.3125C11.4323 49.0208 11.2344 48.6484 11.0938 48.1953C10.9531 47.737 10.8828 47.1901 10.8828 46.5547V41.5469H12.75V46.5703C12.75 46.9609 12.7786 47.2891 12.8359 47.5547C12.8932 47.8151 12.9844 48.0234 13.1094 48.1797C13.2344 48.3411 13.3932 48.4557 13.5859 48.5234C13.7786 48.5911 14.0052 48.625 14.2656 48.625C14.5365 48.625 14.7786 48.5964 14.9922 48.5391C15.2057 48.4766 15.3932 48.3932 15.5547 48.2891C15.6901 48.1953 15.8099 48.0859 15.9141 47.9609C16.0182 47.8307 16.1068 47.6875 16.1797 47.5312V41.5469H18.0547V50H16.3594ZM24.1094 48.6562C24.3438 48.6562 24.5677 48.6224 24.7812 48.5547C25 48.4818 25.1927 48.3802 25.3594 48.25C25.5208 48.1198 25.6484 47.9661 25.7422 47.7891C25.8411 47.612 25.8906 47.4167 25.8906 47.2031H27.6484C27.6536 47.6146 27.5599 48.0026 27.3672 48.3672C27.1797 48.7266 26.9245 49.0365 26.6016 49.2969C26.2734 49.5677 25.8958 49.7812 25.4688 49.9375C25.0469 50.0885 24.6016 50.1641 24.1328 50.1641C23.4818 50.1641 22.9115 50.0521 22.4219 49.8281C21.9375 49.599 21.5339 49.2917 21.2109 48.9062C20.8828 48.5208 20.6354 48.0729 20.4688 47.5625C20.3021 47.0469 20.2188 46.4974 20.2188 45.9141V45.6406C20.2188 45.0625 20.2995 44.5156 20.4609 44C20.6276 43.4844 20.875 43.0339 21.2031 42.6484C21.5312 42.263 21.9375 41.9583 22.4219 41.7344C22.9115 41.5052 23.4792 41.3906 24.125 41.3906C24.6354 41.3906 25.1068 41.4688 25.5391 41.625C25.9766 41.7812 26.3516 42 26.6641 42.2812C26.9766 42.5625 27.2188 42.8984 27.3906 43.2891C27.5677 43.6797 27.6536 44.1094 27.6484 44.5781H25.8906C25.8906 44.349 25.8464 44.1328 25.7578 43.9297C25.6745 43.7266 25.5547 43.5495 25.3984 43.3984C25.237 43.2474 25.0443 43.1276 24.8203 43.0391C24.6016 42.9505 24.3646 42.9062 24.1094 42.9062C23.7188 42.9062 23.3932 42.987 23.1328 43.1484C22.8776 43.3047 22.6745 43.5104 22.5234 43.7656C22.362 44.0208 22.2474 44.3125 22.1797 44.6406C22.1172 44.9688 22.0859 45.3021 22.0859 45.6406V45.9141C22.0859 46.2578 22.1172 46.5964 22.1797 46.9297C22.2474 47.2578 22.3594 47.5469 22.5156 47.7969C22.6667 48.0573 22.8724 48.2656 23.1328 48.4219C23.3932 48.5781 23.7188 48.6562 24.1094 48.6562ZM31.9062 42.75C32.0156 42.5833 32.138 42.4297 32.2734 42.2891C32.4089 42.1484 32.5521 42.026 32.7031 41.9219C32.9375 41.75 33.1953 41.6198 33.4766 41.5312C33.763 41.4375 34.0651 41.3906 34.3828 41.3906C34.8255 41.3906 35.2292 41.4557 35.5938 41.5859C35.9635 41.7161 36.2786 41.9193 36.5391 42.1953C36.7995 42.4714 37 42.8255 37.1406 43.2578C37.2865 43.6849 37.3594 44.1979 37.3594 44.7969V50H35.4922V44.7812C35.4922 44.4688 35.4531 44.1953 35.375 43.9609C35.3021 43.7266 35.1927 43.5365 35.0469 43.3906C34.8958 43.2344 34.7109 43.1198 34.4922 43.0469C34.2786 42.9688 34.0312 42.9297 33.75 42.9297C33.5312 42.9297 33.3229 42.9557 33.125 43.0078C32.9323 43.0599 32.7552 43.1354 32.5938 43.2344C32.4583 43.3125 32.3307 43.4062 32.2109 43.5156C32.0964 43.625 31.9948 43.7474 31.9062 43.8828V50H30.0391V38H31.9062V42.75ZM43.5938 50.1562C42.9688 50.1562 42.3958 50.0521 41.875 49.8438C41.3594 49.6354 40.9167 49.3464 40.5469 48.9766C40.1771 48.612 39.8906 48.1823 39.6875 47.6875C39.4896 47.1875 39.3906 46.6484 39.3906 46.0703V45.75C39.3906 45.0885 39.4948 44.4896 39.7031 43.9531C39.9115 43.4167 40.1979 42.9583 40.5625 42.5781C40.9271 42.1979 41.349 41.9062 41.8281 41.7031C42.3125 41.4948 42.8281 41.3906 43.375 41.3906C43.9844 41.3906 44.5234 41.4948 44.9922 41.7031C45.4609 41.9062 45.8542 42.1901 46.1719 42.5547C46.4896 42.9245 46.7292 43.3646 46.8906 43.875C47.0521 44.3854 47.1328 44.9427 47.1328 45.5469V46.3516H41.2734V46.3906C41.3307 46.7604 41.4193 47.0703 41.5391 47.3203C41.6589 47.5703 41.8229 47.7943 42.0312 47.9922C42.2396 48.2005 42.4844 48.362 42.7656 48.4766C43.0521 48.5911 43.3646 48.6484 43.7031 48.6484C44.1667 48.6484 44.599 48.5599 45 48.3828C45.401 48.2005 45.7318 47.9427 45.9922 47.6094L46.9922 48.5781C46.7109 48.9844 46.2786 49.349 45.6953 49.6719C45.1172 49.9948 44.4167 50.1562 43.5938 50.1562ZM43.3672 42.9062C43.1016 42.9062 42.8542 42.9557 42.625 43.0547C42.401 43.1484 42.2005 43.2839 42.0234 43.4609C41.8464 43.6432 41.6979 43.862 41.5781 44.1172C41.4583 44.3724 41.3698 44.6615 41.3125 44.9844H45.2891V44.8594C45.2891 44.6146 45.2448 44.3724 45.1562 44.1328C45.0677 43.888 44.9427 43.6745 44.7812 43.4922C44.625 43.3151 44.4271 43.1745 44.1875 43.0703C43.9531 42.9609 43.6797 42.9062 43.3672 42.9062Z" fill="#1E1E1E"/>
</svg>
